<?xml version="1.0" encoding="UTF-8"?>
<svg version="1.1" viewBox="0 0 1600 1600" width="1280" height="1280" xmlns="http://www.w3.org/2000/svg">
<path transform="translate(967 357)" d="m0 0c1.23-0.00333 2.46-0.00666 3.72-0.0101 2.59-0.00504 5.18-0.00741 7.76-0.00725 3.94-0.00219 7.88-0.0204 11.8-0.0393 2.52-0.00293 5.05-0.00492 7.57-0.00586 1.75-0.0108 1.75-0.0108 3.54-0.0218 11.4 0.0316 21.8 2.29 32.4 6.42 1.49 0.578 2.99 1.13 4.5 1.67 5.87 2.17 10.9 5.02 16.1 8.48 2.55 1.73 2.55 1.73 5.37 3.27 1.08 0.698 1.08 0.698 2.18 1.41v2c0.681 0.165 1.36 0.33 2.06 0.5 4.38 2.24 6.88 5.71 9.94 9.5 0.87 1.01 0.87 1.01 1.76 2.04 14.7 17.6 18.6 39.2 17 61.6-0.827 8.46-2.91 16.4-5.76 24.4-0.227 0.65-0.455 1.3-0.689 1.97-2.83 8.05-5.86 15.7-10.3 23-0.5 0.884-1 1.77-1.52 2.68-6.64 11.7-13.9 22.8-22.7 33.1-1.64 2.05-2.68 3.93-3.81 6.27-1.64 1.69-3.31 3.35-5 5-0.906 1.1-1.8 2.2-2.69 3.31-0.763 0.887-1.53 1.77-2.31 2.69h-2c-0.247 0.557-0.495 1.11-0.75 1.69-3.4 6.29-8.74 11-14.1 15.6-2.74 2.36-5.13 4.78-7.44 7.56-3.6 4.26-7.76 7.61-12.1 11-2.58 2.02-2.58 2.02-4.76 4.34-1.79 1.73-1.79 1.73-3.79 1.73-0.264 0.604-0.527 1.21-0.799 1.83-1.27 2.29-2.34 3.32-4.42 4.86-0.931 0.705-0.931 0.705-1.88 1.42-0.646 0.478-1.29 0.955-1.96 1.45-1.29 0.953-2.57 1.91-3.85 2.88-0.853 0.63-0.853 0.63-1.72 1.27-1.65 1.35-1.65 1.35-2.37 4.29 1.1 0.0606 2.19 0.121 3.32 0.184 1.45 0.0845 2.91 0.169 4.36 0.254 0.721 0.0393 1.44 0.0786 2.19 0.119 5.56 0.33 10.1 0.926 15.1 3.44 2.08 0.592 4.16 1.15 6.25 1.69 15.3 4.29 30.3 11.4 42.8 21.3v2c0.701 0.227 1.4 0.454 2.12 0.688 3.62 1.65 5.96 3.6 8.88 6.31v2c0.557 0.202 1.11 0.405 1.69 0.613 3.2 1.92 5.12 4.63 7.31 7.57 0.638 0.829 0.638 0.829 1.29 1.67 2.94 3.88 5.36 7.88 7.71 12.1 0.735 1.26 0.735 1.26 1.48 2.55 0.418 0.727 0.835 1.45 1.27 2.2 0.428 0.737 0.856 1.47 1.3 2.23 0.953 2.02 0.953 2.02 0.953 5.02 0.66 0.33 1.32 0.66 2 1 0.752 2.63 1.41 5.21 2 7.88 1.28 5.83 1.28 5.83 4 11.1 1.45 9.02 1.16 18.4 1.13 27.5-0.00538 2.15-4.99e-6 4.31 0.00635 6.46 0.00662 10.4-0.158 20.5-2.95 30.6-0.176 0.635-0.352 1.27-0.533 1.92-1.35 4.75-2.91 9.38-4.67 14-0.64 1.69-1.24 3.39-1.8 5.11-3.95 11.9-10.2 23.4-17.7 33.4-1.61 2.14-1.61 2.14-3.08 4.84-0.472 0.737-0.944 1.47-1.43 2.23h-2c-0.247 0.908-0.495 1.82-0.75 2.75-1.31 3.41-2.59 4.84-5.25 7.25-0.66 0.99-1.32 1.98-2 3h-2c-0.268 0.639-0.536 1.28-0.812 1.94-1.19 2.06-1.19 2.06-4.19 3.06-0.7 1.32-1.36 2.65-2 4-1.57 1.83-1.57 1.83-3.41 3.68-0.679 0.682-1.36 1.36-2.06 2.07-0.71 0.703-1.42 1.41-2.15 2.13-0.687 0.695-1.37 1.39-2.08 2.11-3.98 3.97-8.05 7.51-12.6 10.8-2.1 1.55-3.85 3.36-5.67 5.23-2.75 2.46-4.64 3.89-8.19 5-2.92 0.687-2.92 0.687-3.88 2.94-0.309 0.681-0.619 1.36-0.938 2.06-1.64 1.04-3.32 2.03-5 3-1.32 0.846-2.64 1.7-3.96 2.56-0.719 0.469-1.44 0.937-2.18 1.42-1.48 0.968-2.96 1.94-4.45 2.91-4.4 2.86-8.83 5.56-13.4 8.12-1.36 0.756-1.36 0.756-2.74 1.53-8.93 4.89-17.9 9.41-27.3 13.3-4.47 1.83-8.89 3.75-13.3 5.68-9.09 3.95-18.2 7.4-27.6 10.5-0.746 0.317-1.49 0.634-2.26 0.961-3.03 1.15-6.01 1.85-9.18 2.54-4.3 0.934-8.4 2.07-12.6 3.5-1.73 0.528-3.46 1.05-5.19 1.56-2.62 0.777-5.22 1.57-7.81 2.44-1.58 0.256-3.16 0.48-4.75 0.684-0.92 0.123-1.84 0.246-2.79 0.373-1.93 0.253-3.86 0.503-5.8 0.75-0.921 0.124-1.84 0.249-2.79 0.377-1.26 0.163-1.26 0.163-2.54 0.33-2.33 0.375-2.33 0.375-4.23 1.48-2.16 1.04-3.77 1.38-6.14 1.63-0.783 0.0826-1.57 0.165-2.37 0.25-0.841 0.0774-1.68 0.155-2.55 0.235-0.885 0.0842-1.77 0.168-2.68 0.255-9.68 0.853-19.3 0.927-29 0.902-1.92 0.00135-3.83 0.0033-5.75 0.0058-3.98 0.00292-7.96-0.00124-11.9-0.0107-5.04-0.0114-10.1-0.00482-15.1 0.00714-3.95 0.00732-7.9 0.00489-11.8-2.56e-4 -1.86-0.00131-3.71 2.16e-4 -5.57 0.00496-9.9 0.0198-19.7-0.268-29.6-1.16-0.879-0.0774-1.76-0.155-2.66-0.235-4.31-0.432-7.86-1.07-11.8-2.87-2.71-0.462-5.4-0.872-8.12-1.25-9.2-1.41-17.8-3.99-26.6-6.98-2.24-0.756-4.49-1.48-6.74-2.2-10.3-3.3-10.3-3.3-12.5-5.57-1.8-0.71-3.61-1.37-5.44-2-14.9-5.63-28.6-13.8-41.6-23-0.985-0.678-1.97-1.36-2.98-2.05-5.94-4.18-11.3-8.79-16.6-13.7-2.32-2.2-2.32-2.2-4.73-3.87-0.556-0.44-1.11-0.879-1.68-1.33v-2c-0.594-0.258-1.19-0.516-1.8-0.781-2.39-1.33-3.65-2.62-5.39-4.72-2.68-3.18-5.43-6.26-8.25-9.31-9.15-10.2-17.6-21.9-23.6-34.2-0.889-1.73-0.889-1.73-1.8-3.49-11.3-22.1-18.9-44.8-23.9-69.1-0.238-1.1-0.476-2.2-0.721-3.33-1.18-5.73-1.95-10.4-0.592-16.1h-2c-3.73-22.1-2.04-45.6-1.69-67.8 0.0256-1.9 0.0256-1.9 0.0517-3.84 0.0518-3.67 0.117-7.33 0.187-11 0.0147-1.1 0.0295-2.19 0.0447-3.32 0.141-6.39 0.365-12.9 2.4-19 0.66-0.33 1.32-0.66 2-1 0.656-2.53 0.656-2.53 1-5h1c0.0274 1.85 0.0466 3.71 0.0625 5.56 0.0116 1.03 0.0232 2.07 0.0352 3.13-0.0977 3.31-0.0977 3.31-0.594 6.59-0.623 4.6-0.653 9.09-0.629 13.7 0.00338 0.948 0.00677 1.9 0.0103 2.87 0.0507 7.19 0.221 14.4 0.49 21.6 0.0308 0.952 0.0616 1.9 0.0933 2.88 0.225 5.24 1.02 9.64 2.53 14.7 0.96 5.35 1.71 10.7 2.5 16.1 0.165 1.08 0.33 2.17 0.5 3.28 0.144 0.982 0.289 1.96 0.438 2.98 0.542 2.54 1.36 4.36 2.56 6.64 0.875 3.47 1.66 6.95 2.41 10.4 1.13 5.05 2.69 9.74 4.59 14.6 0.503 1.36 1 2.71 1.5 4.07 0.247 0.669 0.495 1.34 0.75 2.03 0.503 1.36 1 2.72 1.5 4.08 1.52 4.09 3.24 7.94 5.25 11.8 0.837 1.74 0.837 1.74 1.69 3.52 6.54 13.6 13.8 26.2 23.9 37.5 3.4 3.8 3.4 3.8 3.4 5.98 0.99 0.33 1.98 0.66 3 1 1.61 1.67 1.61 1.67 3.31 3.75 2.23 2.65 4.41 4.98 7.12 7.12 0.846 0.701 1.69 1.4 2.56 2.12v2c0.535 0.233 1.07 0.467 1.62 0.707 3.08 1.67 5.71 3.81 8.44 5.98 9.09 7.1 18.7 13 28.9 18.3 0.892 0.467 1.78 0.933 2.7 1.41 4.36 2.23 8.58 4.22 13.3 5.59v2l3.19 0.188c3.96 0.481 7.31 1.7 11 3.19 5.58 2.25 11 3.75 16.9 4.95 2.88 0.676 2.88 0.676 5.35 1.73 3.03 1.14 5.67 1.3 8.9 1.45 3.45 0.165 6.36 0.414 9.65 1.46 5.86 1.79 12.1 1.79 18.2 2.16 1.25 0.0864 2.5 0.173 3.79 0.262 12.6 0.829 25.1 0.639 37.7-0.0764 2.21-0.122 4.43-0.229 6.64-0.336 7.87-0.42 15.2-1.29 22.9-3.31 2.67-0.644 5.2-0.967 7.94-1.16 5.21-0.421 9.86-1.89 14.8-3.5 1.62-0.46 3.25-0.918 4.88-1.38 4.81-1.44 9.36-3.33 14-5.3 3.27-1.38 6.58-2.64 9.9-3.89 4.16-1.59 8.15-3.28 12.1-5.34 2.8-1.43 5.66-2.72 8.52-4.03 27.4-12.6 52.1-28.3 75.6-47.1 0.91-0.719 1.82-1.44 2.76-2.18 3.7-3.01 6.87-6.32 9.8-10.1 3.11-3.5 3.11-3.5 6.44-3.75 0.0619-0.557 0.124-1.11 0.188-1.69 1.15-3.26 3.36-4.89 5.81-7.31 1.59-1.83 3.15-3.69 4.69-5.56 0.767-0.929 1.53-1.86 2.32-2.82 1.67-2.2 2.78-4.18 3.99-6.62l3-3c16.1-24.4 23.5-52.1 25-81 0.04-0.705 0.0799-1.41 0.121-2.14 0.765-15-0.847-34-7.12-47.9 0.07 0.551 0.14 1.1 0.212 1.67 0.882 7.7 0.971 15.3 0.975 23.1 0.0122 1.27 0.0245 2.54 0.0371 3.84 0.0169 11-0.788 21.9-4.22 32.4-0.484 1.66-0.965 3.31-1.45 4.97-6.46 21.5-17.1 38.4-31 56.1-1.08 1.38-2.11 2.79-3.12 4.23-0.471 0.576-0.941 1.15-1.43 1.75h-2c-0.251 0.589-0.503 1.18-0.762 1.79-1.39 2.49-2.86 3.84-5.05 5.65-2.4 2.02-4.65 4.03-6.88 6.25-2.32 2.32-4.66 4.38-7.31 6.31h-2c-0.144-4.22 0.292-7.69 1.44-11.8 4.92-18.8 3.36-39.4-4.44-57.2-2.38-3.92-5.13-7.42-8-11-1.27-1.85-2.55-3.71-3.81-5.56-6.75-9.26-15.6-16.3-25.2-22.4-0.743-0.489-1.49-0.977-2.25-1.48-10-6.32-21.2-11.9-32.7-14.9-3.15-0.878-6.07-2.27-9.06-3.57-9.57-3.57-19.5-5.8-29.5-7.53-3.25-0.616-6.34-1.49-9.49-2.47 0-4 0-4 1.68-6.14 0.724-0.696 1.45-1.39 2.2-2.11 1.08-1.06 1.08-1.06 2.18-2.14 1.95-1.61 1.95-1.61 3.95-1.61 0.33-0.99 0.66-1.98 1-3 1.6-1.54 1.6-1.54 3.62-3.19 2.89-2.44 5.44-4.92 7.88-7.81 2.97-3.51 6.19-6.5 9.7-9.46 1.82-1.51 1.82-1.51 3.41-3.24 1.39-1.3 1.39-1.3 3.39-1.3v-2c1.4-1.16 2.8-2.31 4.22-3.45 2.65-2.31 4.84-4.97 7.12-7.64 2.1-2.43 4.39-4.64 6.66-6.91 0.825-0.99 1.65-1.98 2.5-3 2.37-2.84 4.89-5.39 7.5-8 0.825-0.99 1.65-1.98 2.5-3 6.35-7.62 6.35-7.62 10.5-9 0.686-1.32 1.35-2.66 2-4 3.1-3.94 6.4-7.5 10-11 1.97-1.88 1.97-1.88 3.31-3.75 3.75-5 7.9-9.65 12-14.3 1.7-1.93 1.7-1.93 3.23-4.17 0.467-0.58 0.933-1.16 1.41-1.76h2c0.24-0.701 0.48-1.4 0.727-2.12 1.49-3.37 3.41-5.96 5.65-8.88 0.771-1.01 1.54-2.02 2.34-3.06 1.45-1.86 2.91-3.7 4.39-5.53 1.77-2.24 3.35-4.51 4.9-6.91 2.18-3.32 4.51-6.41 7-9.5 1.01-1.66 2.01-3.33 3-5 0.613-0.868 0.613-0.868 1.24-1.75 8.64-12.3 14.3-26 18.8-40.2 0.353-1.07 0.706-2.14 1.07-3.25 3.29-11.2 2.39-22.4-3.07-32.8-5.23-8.84-16.6-12.5-26-15-4.8-0.966-9.56-1.31-14.4-1.56-1.18-0.0615-1.18-0.0615-2.38-0.124-14.3-1.11-14.3-1.11-28.2 1.69 2 2 6 1.27 8.75 1.38 18.1 0.859 18.1 0.859 25.2 5.62 1.41 0.471 2.82 0.906 4.25 1.31 8.98 2.96 14.6 8.81 19.8 16.7 1.94 4.53 2.24 9.1 2 14-0.874 0.346-0.874 0.346-1.77 0.699-2.75 1.09-5.49 2.2-8.23 3.3-1.37 0.543-1.37 0.543-2.77 1.1-8.03 3.25-15.7 7.06-23.4 11-1.64 0.835-3.3 1.65-4.95 2.46-2.65 1.35-5.17 2.81-7.7 4.38-3.03 1.84-6.06 3.58-9.25 5.12-7.5 3.29-7.5 3.29-12.9 8.94-0.844 0.411-1.69 0.822-2.56 1.25-5 2.55-9.19 6.01-13.6 9.46-3.56 2.73-6.64 4.64-10.8 6.29-0.33 0.99-0.66 1.98-1 3-1.99 1.02-3.99 2.02-6 3-1.35 1.31-2.69 2.64-4 4h-2c-0.33 0.99-0.66 1.98-1 3-0.804 0.309-1.61 0.619-2.44 0.938-3.06 1.27-3.25 2.16-4.56 5.06-0.99 0.33-1.98 0.66-3 1-1.71 1.8-1.71 1.8-3.38 3.94-2.69 3.21-4.59 4.76-8.62 6.06-0.33 0.99-0.66 1.98-1 3-1.38 1.32-1.38 1.32-3.12 2.69-2.75 2.26-5.08 4.6-7.38 7.31-2.7 3.18-5.54 5.8-8.75 8.44-2.6 2.32-4.75 4.97-7 7.62-1.67 1.85-3.38 3.37-5.32 4.94-3.28 2.69-5.65 5.71-8.08 9.17-1.33 1.8-2.76 3.27-4.36 4.83-9.75 10.7-19 21.9-27 34h-2c-0.253 0.893-0.505 1.79-0.766 2.71-1.27 3.38-2.63 5.29-4.98 7.98-3.52 4.25-6.15 8.5-8.68 13.4-1.74 3.25-3.67 6.36-5.63 9.48-2.77 4.46-5.32 8.92-7.59 13.7-1.06 2.19-2.14 4.37-3.25 6.54-4.05 7.96-7.82 15.9-11.1 24.2-0.409 1-0.817 2-1.24 3.03-4.98 12.5-8.75 25.1-10.8 38.3-0.439 2.83-0.897 5.4-2 8.05-7.8 20.3-6.19 60.4 1.01 80.6 0.767 2.8 1.49 5.6 2.22 8.41 0.718 2.38 1.6 4.41 2.78 6.59-2.34-0.173-3.69-0.702-5.38-2.33-3.62-4.24-3.62-4.24-3.62-6.67h-2c-11-13.5-11-13.5-11-19h-2c-11.8-20.8-11.8-20.8-16-32-0.666-1.6-1.33-3.21-2-4.81-11.6-29.5-16.4-61.3-12.4-92.9 0.278-2.22 0.541-4.43 0.803-6.65 0.175-1.43 0.351-2.86 0.527-4.29 0.157-1.27 0.314-2.55 0.476-3.86 0.566-3.35 1.45-6.33 2.59-9.52 0.301-1.41 0.573-2.83 0.812-4.25 0.963-5.03 2.26-9.94 3.62-14.9 0.205-0.752 0.411-1.5 0.622-2.28 1.39-4.98 3.06-9.78 4.94-14.6 0.562-1.48 1.12-2.96 1.68-4.44 0.584-1.52 1.17-3.04 1.75-4.56 0.287-0.755 0.574-1.51 0.869-2.29 2.68-6.96 5.97-13.5 9.57-20 0.512-0.932 1.02-1.86 1.55-2.82 0.519-0.945 1.04-1.89 1.57-2.86 1.02-1.87 2.04-3.75 3.06-5.62 0.498-0.91 0.995-1.82 1.51-2.76 0.895-1.64 1.79-3.28 2.67-4.92 2.84-5.22 5.96-10.2 9.21-15.2 1.56-2.39 1.56-2.39 2.63-4.74 0.918-1.74 0.918-1.74 2.92-2.74 0.92-1.6 1.83-3.21 2.72-4.82 2.03-3.45 4.37-6.68 6.69-9.94 1.22-1.72 2.41-3.47 3.59-5.23h2c0.271-0.731 0.541-1.46 0.82-2.21 1.14-2.69 2.43-4.93 4.05-7.35 0.492-0.744 0.985-1.49 1.49-2.25 1.71-2.29 3.6-4.17 5.63-6.18 1.48-1.75 2.94-3.53 4.38-5.31 3.03-3.73 6.08-7.44 9.23-11.1 0.981-1.13 1.95-2.28 2.92-3.42 3.02-3.57 6.17-6.89 9.48-10.2 1.11-1.42 1.11-1.42 2.25-2.88 2.76-3.41 6.13-5.85 9.66-8.41 2.17-1.64 2.17-1.64 3.73-3.92 0.669-0.886 0.669-0.886 1.35-1.79h2c0.165-0.681 0.33-1.36 0.5-2.06 2.22-4.36 5.74-6.89 9.5-9.94 2.84-2.33 5.65-4.65 8.25-7.25 15.8-15.8 15.8-15.8 21.8-17.8 1.01-0.992 2.01-1.99 3-3 21.6-16 21.6-16 27-16v-2c1.13-0.557 2.27-1.11 3.44-1.69 3.01-1.5 5.95-3.08 8.88-4.75 8.01-4.48 16.5-7.95 25-11.4 2.19-0.91 4.37-1.85 6.54-2.82 3.19-1.31 3.19-1.31 6.5-2.25 2.83-0.816 5.26-1.71 7.94-2.88 7.28-2.99 15-4.71 22.6-6.62 1.95-0.509 3.89-1.08 5.82-1.65 3.42-0.933 6.71-1.47 10.2-1.91 4.03-0.542 7.98-1.12 11.9-2.06 8.67-2.04 17.3-2.1 26.2-2.11zm39 1.17v1h5v-1h-5z" fill="#E44176"/>
<path transform="translate(978,616)" d="m0 0c2.25 0.0649 4.5 0.203 6.75 0.375 1.23 0.0902 2.46 0.18 3.73 0.273 4.75 0.475 8.28 1.23 12.5 3.35 2.08 0.592 4.16 1.15 6.25 1.69 15.3 4.29 30.3 11.4 42.8 21.3v2c0.701 0.227 1.4 0.454 2.12 0.688 3.62 1.65 5.96 3.6 8.88 6.31v2c0.835 0.304 0.835 0.304 1.69 0.613 3.2 1.92 5.12 4.63 7.31 7.57 0.425 0.552 0.851 1.1 1.29 1.67 2.94 3.88 5.36 7.88 7.71 12.1 0.735 1.26 0.735 1.26 1.48 2.55 0.418 0.727 0.835 1.45 1.27 2.2 0.642 1.11 0.642 1.11 1.3 2.23 0.953 2.02 0.953 2.02 0.953 5.02 0.66 0.33 1.32 0.66 2 1 0.752 2.63 1.41 5.21 2 7.88 1.28 5.83 1.28 5.83 4 11.1 1.45 9.02 1.16 18.4 1.13 27.5-0.00538 2.15-4.99e-6 4.31 0.00635 6.46 0.00662 10.4-0.158 20.5-2.95 30.6-0.176 0.635-0.352 1.27-0.533 1.92-1.35 4.75-2.91 9.38-4.67 14-0.64 1.69-1.24 3.39-1.8 5.11-3.95 11.9-10.2 23.4-17.7 33.4-1.61 2.14-1.61 2.14-3.08 4.84-0.472 0.737-0.944 1.47-1.43 2.23h-2c-0.247 0.908-0.495 1.82-0.75 2.75-1.31 3.41-2.59 4.84-5.25 7.25-0.66 0.99-1.32 1.98-2 3h-2c-0.268 0.639-0.536 1.28-0.812 1.94-1.19 2.06-1.19 2.06-4.19 3.06-0.7 1.32-1.36 2.65-2 4-1.57 1.83-1.57 1.83-3.41 3.68-1.02 1.02-1.02 1.02-2.06 2.07-0.71 0.703-1.42 1.41-2.15 2.13-0.687 0.695-1.37 1.39-2.08 2.11-3.98 3.97-8.05 7.51-12.6 10.8-2.1 1.55-3.85 3.36-5.67 5.23-2.75 2.46-4.64 3.89-8.19 5-2.92 0.687-2.92 0.687-3.88 2.94-0.309 0.681-0.619 1.36-0.938 2.06-1.64 1.04-3.32 2.03-5 3-1.32 0.846-2.64 1.7-3.96 2.56-0.719 0.469-1.44 0.937-2.18 1.42-1.48 0.968-2.96 1.94-4.45 2.91-4.4 2.86-8.83 5.56-13.4 8.12-1.36 0.756-1.36 0.756-2.74 1.53-8.93 4.89-17.9 9.41-27.3 13.3-4.47 1.83-8.89 3.75-13.3 5.68-9.09 3.95-18.2 7.4-27.6 10.5-0.746 0.317-1.49 0.634-2.26 0.961-3.03 1.15-6.01 1.85-9.18 2.54-4.3 0.934-8.4 2.07-12.6 3.5-1.73 0.528-3.46 1.05-5.19 1.56-2.62 0.777-5.22 1.57-7.81 2.44-1.58 0.256-3.16 0.48-4.75 0.684-1.38 0.185-1.38 0.185-2.79 0.373-1.93 0.253-3.86 0.503-5.8 0.75-0.921 0.124-1.84 0.249-2.79 0.377-0.84 0.109-1.68 0.218-2.54 0.33-2.33 0.375-2.33 0.375-4.23 1.48-2.16 1.04-3.77 1.38-6.14 1.63-0.783 0.0826-1.57 0.165-2.37 0.25-0.841 0.0774-1.68 0.155-2.55 0.235-0.885 0.0842-1.77 0.168-2.68 0.255-9.68 0.853-19.3 0.927-29 0.902-1.92 0.00135-3.83 0.0033-5.75 0.0058-3.98 0.00292-7.96-0.00124-11.9-0.0107-5.04-0.0114-10.1-0.00482-15.1 0.00714-3.95 0.00732-7.9 0.00489-11.8-2.56e-4 -1.86-0.00131-3.71 2.16e-4 -5.57 0.00496-9.9 0.0198-19.7-0.268-29.6-1.16-0.879-0.0774-1.76-0.155-2.66-0.235-4.31-0.432-7.86-1.07-11.8-2.87-2.71-0.462-5.4-0.872-8.12-1.25-9.2-1.41-17.8-3.99-26.6-6.98-2.24-0.756-4.49-1.48-6.74-2.2-10.3-3.3-10.3-3.3-12.5-5.57-1.8-0.71-3.61-1.37-5.44-2-14.9-5.63-28.6-13.8-41.6-23-0.985-0.678-1.97-1.36-2.98-2.05-5.94-4.18-11.3-8.79-16.6-13.7-2.32-2.2-2.32-2.2-4.73-3.87-0.556-0.44-1.11-0.879-1.68-1.33v-2c-0.594-0.258-1.19-0.516-1.8-0.781-2.39-1.33-3.65-2.62-5.39-4.72-2.68-3.18-5.43-6.26-8.25-9.31-9.15-10.2-17.6-21.9-23.6-34.2-0.593-1.15-1.19-2.3-1.8-3.49-11.3-22.1-18.9-44.8-23.9-69.1-0.238-1.1-0.476-2.2-0.721-3.33-1.18-5.73-1.95-10.4-0.592-16.1h-2c-3.73-22.1-2.04-45.6-1.69-67.8 0.0256-1.9 0.0256-1.9 0.0517-3.84 0.0518-3.67 0.117-7.33 0.187-11 0.0147-1.1 0.0295-2.19 0.0447-3.32 0.141-6.39 0.365-12.9 2.4-19 0.66-0.33 1.32-0.66 2-1 0.656-2.53 0.656-2.53 1-5h1c0.0274 1.85 0.0466 3.71 0.0625 5.56 0.0116 1.03 0.0232 2.07 0.0352 3.13-0.0977 3.31-0.0977 3.31-0.594 6.59-0.623 4.6-0.653 9.09-0.629 13.7 0.00338 0.948 0.00677 1.9 0.0103 2.87 0.0507 7.19 0.221 14.4 0.49 21.6 0.0308 0.952 0.0616 1.9 0.0933 2.88 0.225 5.24 1.02 9.64 2.53 14.7 0.96 5.35 1.71 10.7 2.5 16.1 0.165 1.08 0.33 2.17 0.5 3.28 0.144 0.982 0.289 1.96 0.438 2.98 0.542 2.54 1.36 4.36 2.56 6.64 0.875 3.47 1.66 6.95 2.41 10.4 1.13 5.05 2.69 9.74 4.59 14.6 0.503 1.36 1 2.71 1.5 4.07 0.247 0.669 0.495 1.34 0.75 2.03 0.503 1.36 1 2.72 1.5 4.08 1.52 4.09 3.24 7.94 5.25 11.8 0.558 1.16 1.12 2.33 1.69 3.52 6.54 13.6 13.8 26.2 23.9 37.5 3.4 3.8 3.4 3.8 3.4 5.98 0.99 0.33 1.98 0.66 3 1 1.61 1.67 1.61 1.67 3.31 3.75 2.23 2.65 4.41 4.98 7.12 7.12 0.846 0.701 1.69 1.4 2.56 2.12v2c0.535 0.233 1.07 0.467 1.62 0.707 3.08 1.67 5.71 3.81 8.44 5.98 9.09 7.1 18.7 13 28.9 18.3 0.892 0.467 1.78 0.933 2.7 1.41 4.36 2.23 8.58 4.22 13.3 5.59v2l3.19 0.188c3.96 0.481 7.31 1.7 11 3.19 5.58 2.25 11 3.75 16.9 4.95 2.87 0.676 2.87 0.676 5.35 1.73 3.03 1.14 5.67 1.3 8.9 1.45 3.45 0.165 6.36 0.414 9.65 1.46 5.86 1.79 12.1 1.79 18.2 2.16 1.88 0.13 1.88 0.13 3.79 0.262 12.6 0.829 25.1 0.639 37.7-0.0764 2.21-0.122 4.43-0.229 6.64-0.336 7.87-0.42 15.2-1.29 22.9-3.31 2.67-0.644 5.2-0.967 7.94-1.16 5.21-0.421 9.86-1.89 14.8-3.5 1.62-0.46 3.25-0.918 4.88-1.38 4.81-1.44 9.36-3.33 14-5.3 3.27-1.38 6.58-2.64 9.9-3.89 4.16-1.59 8.15-3.28 12.1-5.34 2.8-1.43 5.66-2.72 8.52-4.03 27.4-12.6 52.1-28.3 75.6-47.1 0.91-0.719 1.82-1.44 2.76-2.18 3.7-3.01 6.87-6.32 9.8-10.1 3.11-3.5 3.11-3.5 6.44-3.75 0.0928-0.835 0.0928-0.835 0.188-1.69 1.15-3.26 3.36-4.89 5.81-7.31 1.59-1.83 3.15-3.69 4.69-5.56 0.767-0.929 1.53-1.86 2.32-2.82 1.67-2.2 2.78-4.18 3.99-6.62l3-3c16.1-24.4 23.5-52.1 25-81 0.04-0.705 0.0799-1.41 0.121-2.14 0.729-14.3-0.362-34.1-7-47.1-1.75-3.7-2.98-7.39-4.12-11.3-1.13-3.85-2.31-7.3-4.25-10.8-1.95-3.6-2.17-6.51-1.75-10.6 0.33-0.33 0.66-0.66 1-1z" fill="#FB9A46"/>
<path transform="translate(890,404)" d="m0 0c2.65 0.23 5.23 0.367 7.88 0.438 17.9 0.752 17.9 0.752 25.1 5.56 1.41 0.471 2.82 0.906 4.25 1.31 8.98 2.96 14.6 8.81 19.8 16.7 1.94 4.53 2.24 9.1 2 14-0.874 0.346-0.874 0.346-1.77 0.699-2.75 1.09-5.49 2.2-8.23 3.3-1.37 0.543-1.37 0.543-2.77 1.1-8.03 3.25-15.7 7.06-23.4 11-1.64 0.835-3.3 1.65-4.95 2.46-2.65 1.35-5.17 2.81-7.7 4.38-3.03 1.84-6.06 3.58-9.25 5.12-7.5 3.29-7.5 3.29-12.9 8.94-1.27 0.617-1.27 0.617-2.56 1.25-5 2.55-9.19 6.01-13.6 9.46-3.56 2.73-6.64 4.64-10.8 6.29-0.33 0.99-0.66 1.98-1 3-1.99 1.02-3.99 2.02-6 3-1.35 1.31-2.69 2.64-4 4h-2c-0.33 0.99-0.66 1.98-1 3-0.804 0.309-1.61 0.619-2.44 0.938-3.06 1.27-3.25 2.16-4.56 5.06-0.99 0.33-1.98 0.66-3 1-1.71 1.8-1.71 1.8-3.38 3.94-2.69 3.21-4.59 4.76-8.62 6.06-0.33 0.99-0.66 1.98-1 3-1.38 1.32-1.38 1.32-3.12 2.69-2.75 2.26-5.08 4.6-7.38 7.31-2.7 3.18-5.54 5.8-8.75 8.44-2.6 2.32-4.75 4.97-7 7.62-1.67 1.85-3.38 3.37-5.32 4.94-3.28 2.69-5.65 5.71-8.08 9.17-1.33 1.8-2.76 3.27-4.36 4.83-9.75 10.7-19 21.9-27 34h-2c-0.253 0.893-0.505 1.79-0.766 2.71-1.27 3.38-2.63 5.29-4.98 7.98-3.52 4.25-6.15 8.5-8.68 13.4-1.74 3.25-3.67 6.36-5.63 9.48-2.77 4.46-5.32 8.92-7.59 13.7-1.06 2.19-2.14 4.37-3.25 6.54-4.05 7.96-7.82 15.9-11.1 24.2-0.613 1.5-0.613 1.5-1.24 3.03-4.98 12.5-8.75 25.1-10.8 38.3-0.439 2.83-0.897 5.4-2 8.05-7.8 20.3-6.19 60.4 1.01 80.6 0.767 2.8 1.49 5.6 2.22 8.41 0.718 2.38 1.6 4.41 2.78 6.59-2.34-0.173-3.69-0.702-5.38-2.33-3.62-4.24-3.62-4.24-3.62-6.67h-2c-11-13.5-11-13.5-11-19h-2c-11.8-20.8-11.8-20.8-16-32-0.666-1.6-1.33-3.21-2-4.81-11.6-29.5-16.4-61.3-12.4-92.9 0.278-2.22 0.541-4.43 0.803-6.65 0.175-1.43 0.351-2.86 0.527-4.29 0.157-1.27 0.314-2.55 0.476-3.86 0.566-3.35 1.45-6.33 2.59-9.52 0.301-1.41 0.573-2.83 0.812-4.25 0.963-5.03 2.26-9.94 3.62-14.9 0.205-0.752 0.411-1.5 0.622-2.28 1.39-4.98 3.06-9.78 4.94-14.6 0.562-1.48 1.12-2.96 1.68-4.44 0.584-1.52 1.17-3.04 1.75-4.56 0.287-0.755 0.574-1.51 0.869-2.29 2.68-6.96 5.97-13.5 9.57-20 0.512-0.932 1.02-1.86 1.55-2.82 0.779-1.42 0.779-1.42 1.57-2.86 1.02-1.87 2.04-3.75 3.06-5.62 0.498-0.91 0.995-1.82 1.51-2.76 0.895-1.64 1.79-3.28 2.67-4.92 2.84-5.22 5.96-10.2 9.21-15.2 1.56-2.39 1.56-2.39 2.63-4.74 0.918-1.74 0.918-1.74 2.92-2.74 0.92-1.6 1.83-3.21 2.72-4.82 2.03-3.45 4.37-6.68 6.69-9.94 1.22-1.72 2.41-3.47 3.59-5.23h2c0.271-0.731 0.541-1.46 0.82-2.21 1.14-2.69 2.43-4.93 4.05-7.35 0.492-0.744 0.985-1.49 1.49-2.25 1.71-2.29 3.6-4.17 5.63-6.18 1.48-1.75 2.94-3.53 4.38-5.31 3.03-3.73 6.08-7.44 9.23-11.1 0.981-1.13 1.95-2.28 2.92-3.42 3.02-3.57 6.17-6.89 9.48-10.2 0.743-0.949 1.48-1.9 2.25-2.88 2.76-3.41 6.13-5.85 9.66-8.41 2.17-1.64 2.17-1.64 3.73-3.92 0.446-0.59 0.892-1.18 1.35-1.79h2c0.165-0.681 0.33-1.36 0.5-2.06 2.22-4.36 5.74-6.89 9.5-9.94 2.84-2.33 5.65-4.65 8.25-7.25 15.8-15.8 15.8-15.8 21.8-17.8 1.02-0.984 2.01-1.99 3-3 1.64-1.26 3.31-2.49 5-3.69 0.866-0.623 1.73-1.25 2.62-1.89 3.61-2.17 6.44-1.31 10.4-0.426 0.99 0.33 1.98 0.66 3 1 7.34-0.0417 14.1-1.14 21.1-3.24 4.48-1.18 9.03-1.69 13.6-2.29 2.68-0.386 5.17-0.905 7.77-1.6 6.66-1.58 15.7-2.76 21.5 1.12z" fill="#F4643A"/>
<path transform="translate(513,639)" d="m0 0h1c0.0274 1.85 0.0466 3.71 0.0625 5.56 0.0116 1.03 0.0232 2.07 0.0352 3.13-0.0977 3.31-0.0977 3.31-0.594 6.59-0.623 4.6-0.653 9.09-0.629 13.7 0.00338 0.948 0.00677 1.9 0.0103 2.87 0.0507 7.19 0.221 14.4 0.49 21.6 0.0308 0.952 0.0616 1.9 0.0933 2.88 0.225 5.24 1.02 9.64 2.53 14.7 0.96 5.35 1.71 10.7 2.5 16.1 0.165 1.08 0.33 2.17 0.5 3.28 0.144 0.982 0.289 1.96 0.438 2.98 0.542 2.54 1.36 4.36 2.56 6.64 0.875 3.47 1.66 6.95 2.41 10.4 1.13 5.05 2.69 9.74 4.59 14.6 0.503 1.36 1 2.71 1.5 4.07 0.247 0.669 0.495 1.34 0.75 2.03 0.503 1.36 1 2.72 1.5 4.08 1.52 4.09 3.24 7.94 5.25 11.8 0.558 1.16 1.12 2.33 1.69 3.52 6.54 13.6 13.8 26.2 23.9 37.5 3.4 3.8 3.4 3.8 3.4 5.98 0.99 0.33 1.98 0.66 3 1 1.61 1.67 1.61 1.67 3.31 3.75 2.23 2.65 4.41 4.98 7.12 7.12 0.846 0.701 1.69 1.4 2.56 2.12v2c0.535 0.233 1.07 0.467 1.62 0.707 3.08 1.67 5.71 3.81 8.44 5.98 9.09 7.1 18.7 13 28.9 18.3 0.892 0.467 1.78 0.933 2.7 1.41 4.36 2.23 8.58 4.22 13.3 5.59v2c1.05 0.0619 2.1 0.124 3.19 0.188 3.96 0.481 7.31 1.7 11 3.19 5.58 2.25 11 3.75 16.9 4.95 2.88 0.676 2.88 0.676 5.35 1.73 3.03 1.14 5.67 1.3 8.9 1.45 3.45 0.165 6.36 0.414 9.65 1.46 5.86 1.79 12.1 1.79 18.2 2.16 1.88 0.13 1.88 0.13 3.79 0.262 12.6 0.829 25.1 0.639 37.7-0.0764 2.21-0.122 4.43-0.229 6.64-0.336 7.98-0.426 15.4-1.34 23.2-3.36 2.44-0.615 2.44-0.615 4.44-0.615 0.66 1.11 1.32 2.23 2 3.38 1.68 2.49 2.58 3.48 5.45 4.5 2.51 0.469 5.02 0.807 7.55 1.12 0.99 0.33 1.98 0.66 3 1 0.33 1.65 0.66 3.3 1 5h2c0.33-0.99 0.66-1.98 1-3 0.66 0.33 1.32 0.66 2 1-1.42 2.85-2.98 4.62-6 5.75-3.13 1.96-3.69 4.88-5 8.25-0.557 0.887-1.11 1.77-1.69 2.69-1.64 2.45-1.64 2.45-1.31 6.31h-6v2c-1.58 0.338-3.17 0.67-4.75 1-0.882 0.186-1.76 0.371-2.67 0.562-2.58 0.438-2.58 0.438-6.58 0.438v3l-3.25-0.0625c-5.61-0.0101-11.2 0.542-16.8 1.06v5c0.66 0.33 1.32 0.66 2 1 0.33-0.99 0.66-1.98 1-3 0.99 0.33 1.98 0.66 3 1 0.33-0.66 0.66-1.32 1-2v2c0.66-0.33 1.32-0.66 2-1 2.33-0.0402 4.67-0.0432 7 0-0.66 0.33-1.32 0.66-2 1v2c6.3 0.946 6.3 0.946 12.6 0.438 3.26-0.585 5.76 0.223 8.95 1.02 4.12 0.904 8.29 1.21 12.5 1.55v2c0.922-0.143 0.922-0.143 1.86-0.289 0.808-0.111 1.62-0.222 2.45-0.336 1.2-0.174 1.2-0.174 2.43-0.352 2.26-0.0234 2.26-0.0234 5.26 1.98l-1 1c2.64 0.66 5.28 1.32 8 2v-6c6.08-1.7 10.8-2.13 17-1v2c-0.66 0.33-1.32 0.66-2 1 0.33 0.66 0.66 1.32 1 2-0.66 0.33-1.32 0.66-2 1 1.65 0.33 3.3 0.66 5 1v2c-2.73 1.5-4.95 2.3-8.04 2.62-0.783 0.0826-1.57 0.165-2.37 0.25-0.841 0.0774-1.68 0.155-2.55 0.235-0.885 0.0842-1.77 0.168-2.68 0.255-9.68 0.853-19.3 0.927-29 0.902-1.92 0.00135-3.83 0.0033-5.75 0.0058-3.98 0.00292-7.96-0.00124-11.9-0.0107-5.04-0.0114-10.1-0.00482-15.1 0.00714-3.95 0.00732-7.9 0.00489-11.8-2.56e-4 -1.86-0.00131-3.71 2.16e-4 -5.57 0.00496-9.9 0.0198-19.7-0.268-29.6-1.16-0.879-0.0774-1.76-0.155-2.66-0.235-4.31-0.432-7.86-1.07-11.8-2.87-2.71-0.462-5.4-0.872-8.12-1.25-9.2-1.41-17.8-3.99-26.6-6.98-2.24-0.756-4.49-1.48-6.74-2.2-10.3-3.3-10.3-3.3-12.5-5.57-1.8-0.71-3.61-1.37-5.44-2-14.9-5.63-28.6-13.8-41.6-23-0.985-0.678-1.97-1.36-2.98-2.05-5.94-4.18-11.3-8.79-16.6-13.7-2.32-2.2-2.32-2.2-4.73-3.87-0.556-0.44-1.11-0.879-1.68-1.33v-2c-0.594-0.258-1.19-0.516-1.8-0.781-2.39-1.33-3.65-2.62-5.39-4.72-2.68-3.18-5.43-6.26-8.25-9.31-9.15-10.2-17.6-21.9-23.6-34.2-0.593-1.15-1.19-2.3-1.8-3.49-11.3-22.1-18.9-44.8-23.9-69.1-0.238-1.1-0.476-2.2-0.721-3.33-1.18-5.73-1.95-10.4-0.592-16.1h-2c-3.73-22.1-2.04-45.6-1.69-67.8 0.0171-1.27 0.0341-2.53 0.0517-3.84 0.0518-3.67 0.117-7.33 0.187-11 0.0147-1.1 0.0295-2.19 0.0447-3.32 0.141-6.39 0.365-12.9 2.4-19 0.66-0.33 1.32-0.66 2-1 0.656-2.53 0.656-2.53 1-5z" fill="#FB8D43"/>
<path transform="translate(921,598)" d="m0 0c3 1 3 1 5 4h2v3l2 2c-0.33 0.66-0.66 1.32-1 2h2v-3c0.99 0.495 0.99 0.495 2 1v4h9c0.33-0.66 0.66-1.32 1-2 0.33 0.99 0.66 1.98 1 3 2.31 0.33 4.62 0.66 7 1-0.33 1.32-0.66 2.64-1 4 1.39 0.464 1.39 0.464 2.81 0.938 2.06 0.688 4.12 1.38 6.19 2.06-0.33-0.99-0.66-1.98-1-3h5c-0.33-0.99-0.66-1.98-1-3h2c-0.33-0.99-0.66-1.98-1-3 8.97 0 8.97 0 12.1 3 2.14 3.32 2.67 5.83 3.39 9.64 0.544 2.32 1.31 4.16 2.36 6.29 6.17 13.8 7.66 26.3 7.62 41.3 4.03e-5 0.77 8.06e-5 1.54 1.22e-4 2.33-0.0373 12.3-0.588 24.6-4.44 36.4-0.484 1.66-0.965 3.31-1.45 4.97-6.46 21.5-17.1 38.4-31 56.1-1.08 1.38-2.11 2.79-3.12 4.23-0.471 0.576-0.941 1.15-1.43 1.75h-2c-0.377 0.884-0.377 0.884-0.762 1.79-1.39 2.49-2.86 3.84-5.05 5.65-2.4 2.02-4.65 4.03-6.88 6.25-2.32 2.32-4.66 4.38-7.31 6.31h-2c-0.144-4.22 0.292-7.69 1.44-11.8 4.92-18.8 3.36-39.4-4.44-57.2-2.38-3.92-5.13-7.42-8-11-1.27-1.85-2.55-3.71-3.81-5.56-6.75-9.26-15.6-16.3-25.2-22.4-0.743-0.489-1.49-0.977-2.25-1.48-10-6.32-21.2-11.9-32.7-14.9-3.15-0.878-6.07-2.27-9.06-3.57-8.1-3.1-16.6-4.97-25-7v-2h-2v-3c-0.66-0.33-1.32-0.66-2-1h5c-0.495-1.49-0.495-1.49-1-3h7v-2c3.3-0.66 6.6-1.32 10-2 1.21-3.11 1.21-3.11 1-7h6c0.227-0.804 0.454-1.61 0.688-2.44 0.65-1.27 0.65-1.27 1.31-2.56 2.44-0.688 2.44-0.688 5-1 0.99-0.66 1.98-1.32 3-2h4c0.33-0.99 0.66-1.98 1-3 4.82-4.11 7.95-4.42 14-4 0.34-0.928 0.34-0.928 0.688-1.88 1.72-2.78 3.28-3.04 6.31-4.12 2.25-1.55 4.16-3.16 6.12-5.06 5.31-3.58 11.6-4.07 17.9-3.94v-3c2.97-1.65 5.94-3.3 9-5-0.99-0.33-1.98-0.66-3-1 2.64-0.33 5.28-0.66 8-1v2c2.48-0.495 2.48-0.495 5-1v-2c1.32-0.66 2.64-1.32 4-2v-1z" fill="#F93E6D"/>
<path transform="translate(967 357)" d="m0 0c1.23-0.00333 2.46-0.00666 3.72-0.0101 2.59-0.00504 5.18-0.00741 7.76-0.00725 3.94-0.00219 7.88-0.0204 11.8-0.0393 2.52-0.00293 5.05-0.00492 7.57-0.00586 1.75-0.0108 1.75-0.0108 3.54-0.0218 11.4 0.0316 21.8 2.29 32.4 6.42 1.49 0.578 2.99 1.13 4.5 1.67 5.87 2.17 10.9 5.02 16.1 8.48 2.55 1.73 2.55 1.73 5.37 3.27 0.718 0.465 1.44 0.931 2.18 1.41v2c0.681 0.165 1.36 0.33 2.06 0.5 4.38 2.24 6.88 5.71 9.94 9.5 0.87 1.01 0.87 1.01 1.76 2.04 14.7 17.6 18.6 39.2 17 61.6-0.827 8.46-2.91 16.4-5.76 24.4-0.341 0.975-0.341 0.975-0.689 1.97-2.83 8.05-5.86 15.7-10.3 23-0.5 0.884-1 1.77-1.52 2.68-6.64 11.7-13.9 22.8-22.7 33.1-1.64 2.05-2.68 3.93-3.81 6.27-1.64 1.69-3.31 3.35-5 5-0.906 1.1-1.8 2.2-2.69 3.31-0.763 0.887-1.53 1.77-2.31 2.69h-2v-2c-0.99-0.33-1.98-0.66-3-1-0.143-0.645-0.286-1.29-0.434-1.95-0.353-2.21-0.353-2.21-2.41-3.09-1.1-0.348-1.1-0.348-2.21-0.703-0.733-0.242-1.47-0.485-2.22-0.734-0.566-0.17-1.13-0.34-1.71-0.516l3-6c-2.9-0.678-2.9-0.678-6-1-0.66 0.66-1.32 1.32-2 2-2.32 0.4-4.66 0.74-7 1v-3c-0.99 0.33-1.98 0.66-3 1-5.7-2.39-5.7-2.39-7-5-1.71-3.31-1.71-3.31-5.12-3.69-0.949-0.103-1.9-0.206-2.88-0.312-1.07-5.51-2.07-11.6 0-17 0.66-0.33 1.32-0.66 2-1 0.33-0.99 0.66-1.98 1-3 0.33-0.99 0.66-1.98 1-3 0.66-0.33 1.32-0.66 2-1 0.33-0.66 0.66-1.32 1-2 0.66-0.66 1.32-1.32 2-2 0.995-1.9 1.95-3.82 2.88-5.75 1.66-3.39 3.27-6.66 5.44-9.75 1.53-2.27 2.28-3.82 2.69-6.5-1.65-0.66-3.3-1.32-5-2-0.598 0.66-1.2 1.32-1.81 2-2.19 2-2.19 2-5.19 2-0.33 0.66-0.66 1.32-1 2-0.688-1.69-0.688-1.69-1-4 1.31-2.75 1.31-2.75 3-5h2v-8h2v-6h2v-3c0.99-0.33 1.98-0.66 3-1 0.33-2.97 0.66-5.94 1-9h2c0.186-1.18 0.186-1.18 0.375-2.38 0.483-2.8 1-5.59 1.56-8.38 0.259-1.29 0.259-1.29 0.523-2.61 0.349-1.71 0.708-3.41 1.08-5.12 2.97-11.5 2.97-11.5 0.461-22.5-1.49-2.73-2-3.81-2-7-0.99-0.66-1.98-1.32-3-2v-4h-3c-0.379-0.924-0.758-1.85-1.15-2.8-3.88-6.71-13.3-9.4-20.5-11.6-7.82-1.97-15.3-2.72-23.3-2.59-0.33-0.33-0.66-0.66-1-1-2.86-0.237-5.7-0.422-8.56-0.562-0.806-0.0432-1.61-0.0864-2.44-0.131-2-0.106-4-0.207-5.99-0.307v2c-0.626-0.0232-1.25-0.0464-1.9-0.0703-0.817-0.018-1.63-0.0361-2.48-0.0547-0.812-0.0232-1.62-0.0464-2.46-0.0703-2.38-0.0184-2.38-0.0184-4.16 2.2-1.67-0.3-3.34-0.636-5-1-1.49 0.495-1.49 0.495-3 1l2 2c-0.664-0.0116-1.33-0.0232-2.01-0.0352-6.55-0.0838-6.55-0.0838-13 1.04-0.495 1.49-0.495 1.49-1 3h-2c-0.437 0.46-0.874 0.92-1.32 1.39-3.85 3.69-10.1 4.53-15.3 4.79-0.784-0.0619-1.57-0.124-2.38-0.188v2c-3.63 0.33-7.26 0.66-11 1 1.32 0.66 2.64 1.32 4 2-2.83 0.48-5.67 0.955-8.51 1.42-2.27 0.375-4.53 0.76-6.8 1.16-6.14 1.03-11.9 1.5-18.1 1.36-3.35 0.0815-6.38 0.792-9.62 1.62-2.35 0.537-4.55 0.6-6.95 0.445 0.66-0.66 1.32-1.32 2-2-1.65-0.66-3.3-1.32-5-2v-2c1.21-0.588 1.21-0.588 2.44-1.19 2.63-1.34 5.19-2.73 7.75-4.19 8.05-4.5 16.6-7.99 25.1-11.5 2.19-0.91 4.37-1.85 6.54-2.82 3.19-1.31 3.19-1.31 6.5-2.25 2.83-0.816 5.26-1.71 7.94-2.88 7.28-2.99 15-4.71 22.6-6.62 1.95-0.509 3.89-1.08 5.82-1.65 3.42-0.933 6.71-1.47 10.2-1.91 4.03-0.542 7.98-1.12 11.9-2.06 8.67-2.04 17.3-2.1 26.2-2.11zm39 1.17v1h5v-1h-5z" fill="#CE4586"/>
<path transform="translate(890,404)" d="m0 0c2.65 0.23 5.23 0.367 7.88 0.438 17.9 0.752 17.9 0.752 25.1 5.56 1.41 0.471 2.82 0.906 4.25 1.31 8.98 2.96 14.6 8.81 19.8 16.7 1.94 4.53 2.24 9.1 2 14-0.874 0.346-0.874 0.346-1.77 0.699-2.75 1.09-5.49 2.2-8.23 3.3-1.37 0.543-1.37 0.543-2.77 1.1-8.03 3.25-15.7 7.06-23.4 11-1.64 0.835-3.3 1.65-4.95 2.46-2.65 1.35-5.17 2.81-7.7 4.38-3.03 1.84-6.06 3.58-9.25 5.12-7.5 3.29-7.5 3.29-12.9 8.94-3.06 0.625-3.06 0.625-6 1-0.33-0.99-0.66-1.98-1-3h-3c-0.66-1.32-1.32-2.64-2-4-0.99 0.33-1.98 0.66-3 1v-5c1.32-0.33 2.64-0.66 4-1v-2h-2c0.951-2.85 1.13-3.13 3-5-0.99-0.33-1.98-0.66-3-1l-2 1c-2.04 0.0707-4.08 0.0842-6.12 0.0625-1.1-0.00902-2.19-0.018-3.32-0.0273-0.843-0.0116-1.69-0.0232-2.55-0.0352-0.33 1.65-0.66 3.3-1 5-0.33-0.66-0.66-1.32-1-2-3.45 0.701-3.45 0.701-7 2-0.309 0.66-0.619 1.32-0.938 2-1.06 2-1.06 2-3.23 2.83-1.22 0.209-1.22 0.209-2.46 0.422-0.817 0.15-1.63 0.299-2.48 0.453-0.626 0.098-1.25 0.196-1.9 0.297v2c0.66 0.66 1.32 1.32 2 2-3.47 0.495-3.47 0.495-7 1 0.33 0.66 0.66 1.32 1 2-3.15 0.262-4.62 0.248-7.31-1.5-0.557-0.495-1.11-0.99-1.69-1.5-0.33 1.65-0.66 3.3-1 5-0.552-0.184-1.1-0.369-1.67-0.559-2.81-0.533-4.79-0.127-7.58 0.496-0.892 0.195-1.78 0.389-2.7 0.59-0.675 0.156-1.35 0.312-2.05 0.473v2c-0.495 0.474-0.99 0.949-1.5 1.44-1.85 1.56-1.85 1.56-1.5 4.56-2.97-0.495-2.97-0.495-6-1v2c-0.969 0.165-1.94 0.33-2.94 0.5-4.66 1.28-7.5 4.38-10.9 7.72-2.47 1.99-4.13 2.28-7.21 2.78-1.26 1.85-1.26 1.85-2 4-2.44 3.67-3.93 3.67-8 5-1.71 1.54-1.71 1.54-3 3h-2c0.33 0.99 0.66 1.98 1 3-1.98 0.33-3.96 0.66-6 1-0.495 1.98-0.495 1.98-1 4h-3c-0.186 1.18-0.186 1.18-0.375 2.38-0.625 2.62-0.625 2.62-2.62 4.62-0.33 0.66-0.66 1.32-1 2-0.33-0.99-0.66-1.98-1-3l-1 1c0.0206 0.804 0.0412 1.61 0.0625 2.44-0.0625 2.56-0.0625 2.56-2.06 4.56-1.98 0.714-3.98 1.39-6 2v3c-3.17 2.45-6 4.38-10 5v2c-0.99 0.33-1.98 0.66-3 1-0.613 1.01-0.613 1.01-1.24 2.05-1.76 1.95-1.76 1.95-5.12 2.34-1.26-0.0464-2.53-0.0928-3.83-0.141-1.27-0.0361-2.54-0.0722-3.86-0.109-0.976-0.0464-1.95-0.0928-2.96-0.141-0.33 1.32-0.66 2.64-1 4-2.31 0.33-4.62 0.66-7 1-0.33 1.32-0.66 2.64-1 4-0.722-0.0412-1.44-0.0825-2.19-0.125-3.11 0.138-5.07 0.645-7.81 2.12-1.26 1.85-1.26 1.85-2 4-0.812 2.12-0.812 2.12-2 4-1.18 0.402-1.18 0.402-2.38 0.812-5.24 2.37-6.78 8.49-8.75 13.6-0.312 0.853-0.624 1.71-0.945 2.59-0.93 2.04-0.93 2.04-2.93 3.04-0.398 1.65-0.719 3.32-1 5-0.484 1.9-0.984 3.8-1.5 5.69-0.258 0.953-0.516 1.91-0.781 2.89-0.719 2.43-0.719 2.43-1.72 4.43h-2c-0.0735 1.01-0.0735 1.01-0.148 2.05-0.0748 0.892-0.15 1.78-0.227 2.7-0.0696 0.882-0.139 1.76-0.211 2.67-0.414 2.58-0.414 2.58-1.38 4.45-1.48 3.04-1.72 6.03-2.16 9.38-0.168 1.26-0.335 2.53-0.508 3.83-0.121 0.964-0.242 1.93-0.367 2.92-0.66-0.66-1.32-1.32-2-2-0.33 2.64-0.66 5.28-1 8h-2c0.0232 0.929 0.0464 1.86 0.0703 2.82 0.187 12.8 0.187 12.8-2.07 18.2-0.66 0.33-1.32 0.66-2 1 0.0412 1.22 0.0825 2.43 0.125 3.69-0.0252 3.56-0.183 6.22-2.12 9.31-3.12 1.81-3.12 1.81-6 3l1-4h-2c1.06-22.3 5.97-44.1 14-65 0.412-1.09 0.412-1.09 0.832-2.19 0.862-2.27 1.73-4.54 2.61-6.81 0.287-0.755 0.574-1.51 0.869-2.29 2.68-6.96 5.97-13.5 9.57-20 0.512-0.932 1.02-1.86 1.55-2.82 0.779-1.42 0.779-1.42 1.57-2.86 1.02-1.87 2.04-3.75 3.06-5.62 0.498-0.91 0.995-1.82 1.51-2.76 0.895-1.64 1.79-3.28 2.67-4.92 2.84-5.22 5.96-10.2 9.21-15.2 1.56-2.39 1.56-2.39 2.63-4.74 0.918-1.74 0.918-1.74 2.92-2.74 0.92-1.6 1.83-3.21 2.72-4.82 2.03-3.45 4.37-6.68 6.69-9.94 1.22-1.72 2.41-3.47 3.59-5.23h2c0.271-0.731 0.541-1.46 0.82-2.21 1.14-2.69 2.43-4.93 4.05-7.35 0.492-0.744 0.985-1.49 1.49-2.25 1.71-2.29 3.6-4.17 5.63-6.18 1.48-1.75 2.94-3.53 4.38-5.31 3.03-3.73 6.08-7.44 9.23-11.1 0.981-1.13 1.95-2.28 2.92-3.42 3.02-3.57 6.17-6.89 9.48-10.2 0.743-0.949 1.48-1.9 2.25-2.88 2.76-3.41 6.13-5.85 9.66-8.41 2.17-1.64 2.17-1.64 3.73-3.92 0.446-0.59 0.892-1.18 1.35-1.79h2c0.165-0.681 0.33-1.36 0.5-2.06 2.22-4.36 5.74-6.89 9.5-9.94 2.84-2.33 5.65-4.65 8.25-7.25 15.8-15.8 15.8-15.8 21.8-17.8 1.02-0.984 2.01-1.99 3-3 1.64-1.26 3.31-2.49 5-3.69 0.866-0.623 1.73-1.25 2.62-1.89 3.61-2.17 6.44-1.31 10.4-0.426 0.99 0.33 1.98 0.66 3 1 7.34-0.0417 14.1-1.14 21.1-3.24 4.48-1.18 9.03-1.69 13.6-2.29 2.68-0.386 5.17-0.905 7.77-1.6 6.66-1.58 15.7-2.76 21.5 1.12z" fill="#FA8C43"/>
<path transform="translate(1052,646)" d="m0 0c3.44 1.53 6.19 3.5 9 6v2c0.557 0.202 1.11 0.405 1.69 0.613 3.2 1.92 5.12 4.63 7.31 7.57 0.425 0.552 0.851 1.1 1.29 1.67 2.94 3.88 5.36 7.88 7.71 12.1 0.49 0.84 0.98 1.68 1.48 2.55 0.418 0.727 0.835 1.45 1.27 2.2 0.642 1.11 0.642 1.11 1.3 2.23 0.953 2.02 0.953 2.02 0.953 5.02 0.66 0.33 1.32 0.66 2 1 0.752 2.63 1.41 5.21 2 7.88 1.28 5.83 1.28 5.83 4 11.1 1.45 9.02 1.16 18.4 1.13 27.5-0.00538 2.15-4.99e-6 4.31 0.00635 6.46 0.00662 10.4-0.158 20.5-2.95 30.6-0.176 0.635-0.352 1.27-0.533 1.92-1.35 4.75-2.91 9.38-4.67 14-0.64 1.69-1.24 3.39-1.8 5.11-3.95 11.9-10.2 23.4-17.7 33.4-1.61 2.14-1.61 2.14-3.08 4.84-0.472 0.737-0.944 1.47-1.43 2.23h-2c-0.371 1.36-0.371 1.36-0.75 2.75-1.31 3.41-2.59 4.84-5.25 7.25-0.66 0.99-1.32 1.98-2 3h-2c-0.268 0.639-0.536 1.28-0.812 1.94-1.19 2.06-1.19 2.06-4.19 3.06-0.7 1.32-1.36 2.65-2 4-1.57 1.83-1.57 1.83-3.41 3.68-0.679 0.682-1.36 1.36-2.06 2.07-1.07 1.05-1.07 1.05-2.15 2.13-0.687 0.695-1.37 1.39-2.08 2.11-3.98 3.97-8.05 7.51-12.6 10.8-2.1 1.55-3.85 3.36-5.67 5.23-3.89 3.68-6.67 4.58-12 5v-2c-0.66-0.33-1.32-0.66-2-1v-3c-1.65-0.33-3.3-0.66-5-1v-2c-5.77-0.462-8.39 0.572-13 4h-2c-0.33 0.66-0.66 1.32-1 2-0.99-0.33-1.98-0.66-3-1v2c-1.06 0.557-2.13 1.11-3.23 1.69-7.12 3.74-14.2 7.51-21.1 11.6-7.23 4.17-14.6 7.6-22.4 10.6-4.45 1.74-8.57 3.91-12.8 6.19-5.7 3.1-11.4 5.86-17.5 8-0.627 0.223-1.25 0.446-1.9 0.677-5.97 2.07-12 3.59-18.2 5.01-0.961 0.225-1.92 0.45-2.91 0.682-2.34 0.547-4.68 1.09-7.03 1.63 0.33 0.66 0.66 1.32 1 2-5.81 1.43-11.3 2.3-17.3 2.66-2.72 0.255-2.72 0.255-5.37 1.3-4.46 1.41-8.85 1.84-13.5 2.3-0.902 0.103-1.8 0.206-2.73 0.312-0.866 0.0877-1.73 0.175-2.62 0.266-1.18 0.122-1.18 0.122-2.38 0.247-2.08-0.0752-2.08-0.0752-5.08-2.08-0.657-5.15-0.657-5.15 1.25-7.62 2.07-1.63 3.55-1.98 6.12-2.44 2.45-0.441 4.53-0.897 6.82-1.89 4.03-1.5 8.13-2.03 12.4-2.67 0.85-0.134 1.7-0.268 2.58-0.406 3.7-0.569 7.1-0.969 10.9-0.969v-2c1.05-0.254 2.1-0.508 3.18-0.77 1.42-0.347 2.84-0.695 4.25-1.04 1.03-0.248 1.03-0.248 2.08-0.502 9.93-2.45 19-6.11 28.2-10.4 1.15-0.532 2.3-1.06 3.48-1.61 7.02-3.28 13.9-6.68 20.6-10.5 2.12-1.11 2.12-1.11 4.12-1.11 0.33-0.99 0.66-1.98 1-3 2.34-1.32 2.34-1.32 5.38-2.69 6.47-3.09 11.9-6.97 17.6-11.3 3.3-2.45 6.58-4.77 10.2-6.75 10.4-5.79 19.4-13.7 26.3-23.3 0.532-0.732 1.06-1.46 1.61-2.22 0.498-0.697 0.995-1.39 1.51-2.11 0.451-0.519 0.902-1.04 1.37-1.57h2c-0.576-2.39-1.22-4.67-2-7h-2c-0.33 0.66-0.66 1.32-1 2v-7h-2c-1.12-3.75-1.12-3.75 0-6-1.98 0.33-3.96 0.66-6 1-0.188-2.81-0.188-2.81 0-6 0.464-0.454 0.928-0.908 1.41-1.38 2.07-2.11 2.51-3.98 3.28-6.81 0.251-0.901 0.503-1.8 0.762-2.73 0.182-0.687 0.364-1.37 0.551-2.08h3v-4c2.48-0.99 2.48-0.99 5-2v-7h3c2.27-2.79 3.01-4.38 2.93-8.01-0.332-2.08-0.665-4.17-1-6.25 0.0664-2.74 0.0664-2.74 1.91-4.61 2.15-1.13 2.15-1.13 4.15-1.13v-2h2v2h2c-1.03-2.58-1.51-3.76-4.06-5-1.94-1-1.94-1-2.69-3.12-0.0825-0.619-0.165-1.24-0.25-1.88 5.75-1.12 5.75-1.12 8 0-0.33-2.31-0.66-4.62-1-7 0.66-0.33 1.32-0.66 2-1 0.66 0.33 1.32 0.66 2 1-0.227-0.908-0.454-1.82-0.688-2.75-0.312-3.25-0.312-3.25 1.12-5.62 0.516-0.536 1.03-1.07 1.56-1.62-0.33-0.66-0.66-1.32-1-2 3.75-1.12 3.75-1.12 6 0-0.371-0.784-0.743-1.57-1.12-2.38-1.19-4.92-0.116-8.79 1.12-13.6 2.97-0.495 2.97-0.495 6-1 0.124 0.536 0.247 1.07 0.375 1.62 0.747 2.84 1.68 5.6 2.62 8.38 0.66-1.98 1.32-3.96 2-6h3v2c0.99 0.33 1.98 0.66 3 1-0.754 6.54-0.754 6.54-2.06 9-1.39 2.97-0.995 5.76-0.938 9-0.5 2.44-0.5 2.44-1 4h-2c-0.548 2.1-1.03 4.19-1.43 6.32-0.147 0.78-0.294 1.56-0.445 2.36-0.142 0.788-0.284 1.58-0.43 2.39-0.229 0.636-0.459 1.27-0.695 1.93-0.99 0.33-1.98 0.66-3 1-0.66-0.33-1.32-0.66-2-1 0.33 0.66 0.66 1.32 1 2h3c0.195 1.46 0.381 2.92 0.562 4.38 0.104 0.812 0.209 1.62 0.316 2.46 0.121 2.16 0.121 2.16-0.879 4.16h-2c-0.186 0.959-0.186 0.959-0.375 1.94-0.206 0.681-0.412 1.36-0.625 2.06-0.66 0.33-1.32 0.66-2 1-0.727 1.98-1.4 3.98-2 6-1.65-0.33-3.3-0.66-5-1 0.66 1.32 1.32 2.64 2 4 1.32-0.33 2.64-0.66 4-1 0.33 1.32 0.66 2.64 1 4 5.04-0.194 5.04-0.194 8.94-3.06 1.4-3.87 1.27-6.84 1.06-10.9h2c0.206-1.28 0.412-2.56 0.625-3.88 0.116-0.719 0.232-1.44 0.352-2.18 0.00773-0.642 0.0155-1.28 0.0234-1.95-0.66-0.66-1.32-1.32-2-2-0.125-3.63-0.125-3.63 0-7 1.32-0.33 2.64-0.66 4-1 0.33 1.32 0.66 2.64 1 4h2v-5h2c2.16-7.96 2.16-7.96 3.56-16.1 0.438-2.94 0.438-2.94 2.44-5.94 0.165-0.866 0.33-1.73 0.5-2.62 0.165-0.784 0.33-1.57 0.5-2.38 0.66-0.33 1.32-0.66 2-1 1.02-0.98 2.02-1.98 3-3 0.33 0.33 0.66 0.66 1 1 2.4-3.6 1.82-4.97 1.16-9.07-0.201-2.48 0.632-3.81 1.84-5.93-0.309-1.34-0.645-2.67-1-4-0.072-2.81-0.0923-5.6-0.0625-8.41 0.00568-1.22 0.00568-1.22 0.0115-2.46 0.0122-2.58 0.0308-5.17 0.051-7.75 0.0265-3.41 0.0465-6.82 0.0625-10.2 0.0083-0.786 0.0166-1.57 0.0251-2.38 0.113-4.01 0.113-4.01-1.09-7.77-0.33 1.98-0.66 3.96-1 6h-1c-0.877-3.95-1.04-7.67-1-11.7 0.0559-6.42 0.0867-13.1-1.54-19.4-0.465-1.94-0.465-1.94-0.465-5.94z" fill="#FBA94B"/>
<path transform="translate(567,1041)" d="m0 0c71.8 0 71.8 0 83.6 10.4 4.99 5.47 6.95 12 6.65 19.3-0.866 6.85-3.96 12.7-9.28 17.2-2.19 0.691-2.19 0.691-4 1 2.17 2.34 4.13 4.08 6.88 5.75 5.52 3.97 9.8 9.49 11.1 16.2 0.887 8.74-0.212 16.3-5.81 23.3-10.3 10.2-24.7 10.9-38.4 10.9-1.91-0.00767-1.91-0.00767-3.87-0.0155-1.19-0.00101-2.38-0.00201-3.61-0.00305-4.42-0.00521-8.84-0.0192-13.3-0.0321-9.9-0.0206-19.8-0.0412-30-0.0625v-104zm23 18v25c4.59 0.0691 9.18 0.129 13.8 0.165 1.56 0.015 3.12 0.0355 4.68 0.0615 2.25 0.0366 4.5 0.0535 6.75 0.0667 0.691 0.0155 1.38 0.031 2.09 0.0469 5.44 0.00187 9.34-1.38 13.5-4.84 2.76-3.48 2.48-7.27 2.19-11.5-1.67-3.66-3.53-5.96-7-8-4.11-1.08-8.03-1.12-12.3-1.1-0.681 0.00141-1.36 0.00283-2.06 0.00429-2.16 0.00557-4.32 0.0181-6.48 0.0309-1.47 0.00502-2.94 0.00958-4.41 0.0137-3.59 0.0101-7.18 0.0297-10.8 0.0488zm0 42c-0.0289 4.31-0.0468 8.62-0.0625 12.9-0.00838 1.23-0.0168 2.46-0.0254 3.73-0.00322 1.17-0.00645 2.34-0.00977 3.54-0.00524 1.08-0.0105 2.17-0.0159 3.28-0.171 2.44-0.171 2.44 1.11 3.5 2.34 0.126 4.66 0.189 7 0.203 0.71 0.0057 1.42 0.0114 2.15 0.0173 1.51 0.00947 3.02 0.016 4.53 0.0198 2.28 0.00961 4.56 0.0406 6.85 0.0723 12.7 0.172 12.7 0.172 23.9-5.19 2.7-3.67 3.6-6.01 3.44-10.6-0.995-3.98-1.86-5.72-4.88-8.5-5.78-2.6-10.4-3.42-16.7-3.29-0.788 0.00424-1.58 0.00849-2.39 0.0129-2.49 0.0166-4.97 0.0542-7.46 0.0926-1.7 0.0151-3.4 0.0288-5.09 0.041-4.14 0.0329-8.27 0.0845-12.4 0.146z" fill="#000102"/>
<path transform="translate(508,719)" d="m0 0c2.34 2.34 2.35 3.14 2.75 6.32 0.173 1.3 0.173 1.3 0.35 2.62 0.225 1.81 0.449 3.62 0.672 5.43 0.723 5.4 2.04 9.61 4.23 14.6 1.37 5.12 2.46 10.3 3.57 15.5 1.46 6.43 3.38 12.2 6.27 18.1 1.12 2.33 2.03 4.67 2.9 7.1 3.3 8.46 8.2 16.4 13 24.1 1.28 2.22 1.28 2.22 2.15 5.47 1.21 4.04 2.96 7.23 5.1 10.8 1.02 1.92 1.02 1.92 1.02 3.92 0.639 0.268 1.28 0.536 1.94 0.812 2.06 1.19 2.06 1.19 3.06 4.19h2c1.59 1.71 3.1 3.5 4.56 5.31 1.21 1.48 1.21 1.48 2.44 2.99 2 2.7 2 2.7 3 5.7h2c3 4.38 3 4.38 3 7 0.557 0.25 1.11 0.5 1.69 0.758 2.7 1.45 4.93 3.19 7.31 5.12 1.27 1.02 1.27 1.02 2.56 2.05 2.28 1.94 4.43 3.85 6.44 6.07v2h3c1.71 1.62 3.37 3.3 5 5 4.2 4.11 6.95 6.44 13 7l2 2c0.66-0.33 1.32-0.66 2-1 1.49 0.99 1.49 0.99 3 2 1.2 0.33 2.39 0.66 3.62 1 1.11 0.33 2.23 0.66 3.38 1 0.33 0.66 0.66 1.32 1 2-0.33 0.66-0.66 1.32-1 2h2v2c1.26-0.0619 2.52-0.124 3.81-0.188 3.9-0.00691 3.9-0.00691 6.19 1.56 1 1.62 1 1.62 1 3.62 4.33 2.03 8.29 2.52 13 3 0.103 0.784 0.206 1.57 0.312 2.38 0.463 2.96 0.463 2.96 3.69 4.62 2.39 0.295 4.79 0.493 7.19 0.625 1.27 0.0748 2.54 0.15 3.86 0.227l2.96 0.148c0.33 1.65 0.66 3.3 1 5h8c0.33 0.66 0.66 1.32 1 2-0.33 0.66-0.66 1.32-1 2 0.687 0.0374 1.37 0.0748 2.08 0.113 1.35 0.0986 1.35 0.0986 2.73 0.199 0.893 0.058 1.79 0.116 2.71 0.176 2.87 0.591 3.67 1.28 5.48 3.51 0.846 1.01 1.69 2.02 2.56 3.06 0.804 0.969 1.61 1.94 2.44 2.94l2 2c0.33-0.66 0.66-1.32 1-2 6.75 0.875 6.75 0.875 9 2v3c3.47 2.31 4.95 2.09 9 2 0.66 0.33 1.32 0.66 2 1 1.54 0.225 3.08 0.408 4.62 0.562 0.817 0.0838 1.63 0.168 2.48 0.254 0.626 0.0606 1.25 0.121 1.9 0.184-1.25 2.5-1.25 2.5-3 5h-4v2c0.66 0.33 1.32 0.66 2 1l-2 2c0.743-0.0825 1.48-0.165 2.25-0.25 2.75 0.25 2.75 0.25 5.06 2.12 1.69 2.12 1.69 2.12 1.69 4.12-3.4-0.11-6.79-0.241-10.2-0.375-0.96-0.0309-1.92-0.0619-2.91-0.0938-1.4-0.058-1.4-0.058-2.82-0.117-0.854-0.0314-1.71-0.0628-2.59-0.0952-2.77-0.354-4.93-1.24-7.5-2.32-2.71-0.462-5.4-0.872-8.12-1.25-9.2-1.41-17.8-3.99-26.6-6.98-2.24-0.756-4.49-1.48-6.74-2.2-10.3-3.3-10.3-3.3-12.5-5.57-1.8-0.71-3.61-1.37-5.44-2-14.9-5.63-28.6-13.8-41.6-23-0.985-0.678-1.97-1.36-2.98-2.05-5.94-4.18-11.3-8.79-16.6-13.7-2.32-2.2-2.32-2.2-4.73-3.87-0.556-0.44-1.11-0.879-1.68-1.33v-2c-0.594-0.258-1.19-0.516-1.8-0.781-2.39-1.33-3.65-2.62-5.39-4.72-2.68-3.18-5.43-6.26-8.25-9.31-9.15-10.2-17.6-21.9-23.6-34.2-0.593-1.15-1.19-2.3-1.8-3.49-11.3-22.1-18.9-44.8-23.9-69.1-0.357-1.65-0.357-1.65-0.721-3.33-1.18-5.73-1.95-10.4-0.592-16.1h-2c-1.05-6.27-1.36-12.5-1.62-18.9-0.0516-1.06-0.103-2.11-0.156-3.2-0.0438-1-0.0877-2.01-0.133-3.04-0.0408-0.914-0.0815-1.83-0.124-2.77 0.0376-2.11 0.0376-2.11 1.04-3.11z" fill="#FCA94B"/>
<path transform="translate(888,1050)" d="m0 0c10.6 7.59 17.3 18.8 20.6 31.3 2.17 15 0.209 30.1-8.61 42.7-9.84 12.9-23 20.4-38.9 22.7-15.9 1.65-31.9-0.881-44.8-10.8-10.2-8.83-18.9-20.6-20.6-34.4-0.132-2.61-0.163-5.2-0.133-7.81 0.00757-0.922 0.0151-1.84 0.0229-2.79 0.344-14.3 6.3-26.3 16-36.7 21.1-18.7 53.3-19.4 76.4-4.17zm-59 17.8c-7.27 7.65-10.1 16.8-10 27.2 0.765 9.87 4 17.4 11.1 24.3 7.68 6.35 15.8 8.44 25.7 8.06 10.2-1.19 17.4-5.69 24.2-13.4 6.2-9.34 6.22-21 4.57-31.8-2.59-8.95-8.85-15.6-16.9-20-12.9-5.53-28.1-3.81-38.7 5.6z" fill="#000102"/>
<path transform="translate(1028,1049)" d="m0 0c2.77 2.23 5.42 4.56 8 7-1.61 4.07-4.54 6.77-7.62 9.75-0.516 0.507-1.03 1.01-1.56 1.54-1.27 1.24-2.54 2.48-3.81 3.71-0.969-0.557-1.94-1.11-2.94-1.69-0.643-0.362-1.29-0.724-1.95-1.1-1.41-0.813-2.81-1.66-4.2-2.52-9.06-5.5-18.5-6.74-28.9-4.69-8.21 2.24-15.2 6.2-19.6 13.7-2.21 4.65-4.09 9.13-4.43 14.3-0.0619 0.628-0.124 1.26-0.188 1.9-0.522 9.02 2.05 18.1 7.81 25.1 7.15 7.28 15.4 10.1 25.4 10.2 1.23 0.0258 2.46 0.0516 3.72 0.0781 5.43-0.29 5.43-0.29 15.2-3.33 0.33-10.2 0.66-20.5 1-31h21c0.0688 5.78 0.129 11.6 0.165 17.4 0.0151 1.97 0.0356 3.94 0.0615 5.9 0.0363 2.83 0.0534 5.65 0.0667 8.48 0.0155 0.881 0.031 1.76 0.0469 2.67 2.27e-4 0.821 4.53e-4 1.64 6.87e-4 2.49 0.00999 1.08 0.00999 1.08 0.0202 2.19-0.47 2.5-1.41 3.33-3.36 4.92-17.6 10.1-36.7 13.8-56.6 9.04-13.8-4.17-25.3-12.5-32.4-25-7.62-15.3-8.93-29.7-3.74-46 5.26-14.1 15.7-23.2 28.7-30 18.2-8.06 43.6-6.53 60 5z" fill="#000102"/>
<path transform="translate(890,404)" d="m0 0c2.81 0.278 5.55 0.465 8.38 0.562 9.19 0.369 9.19 0.369 13.6 1.44v2c0.99 0.33 1.98 0.66 3 1h-4c-0.289 1.13-0.577 2.27-0.875 3.44-0.557 1.76-0.557 1.76-1.12 3.56-2.3 1.15-4.08 1.31-6.62 1.56-0.817 0.0838-1.63 0.168-2.48 0.254-0.626 0.0606-1.25 0.121-1.9 0.184-0.495 1.49-0.495 1.49-1 3-3.65 1.62-6.19 2.46-10 1v3h-4v2c-15.9 9-15.9 9-19 9-0.33 0.99-0.66 1.98-1 3-2.49 1.47-2.49 1.47-5.88 3.06-1.29 0.615-2.57 1.23-3.86 1.85-0.692 0.333-1.38 0.666-2.1 1.01-2.24 1.11-4.43 2.28-6.62 3.48-10.6 5.77-21.3 10.6-32.6 14.8-1.6 0.618-3.17 1.31-4.73 2.03-2.74 0.892-4.28 0.593-7.04-0.148-0.79-0.204-1.58-0.407-2.39-0.617-0.592-0.168-1.18-0.335-1.79-0.508v2h-5c-0.204-0.645-0.407-1.29-0.617-1.95-1.25-2.36-1.25-2.36-4.2-2.66-1.09-0.0464-2.18-0.0928-3.3-0.141-1.64-0.0851-1.64-0.0851-3.32-0.172-0.843-0.0258-1.69-0.0516-2.55-0.0781l2-1c-0.495-1.49-0.495-1.49-1-3h-2v-6h-2v2h-2c-0.66-2.64-1.32-5.28-2-8 0.519-0.447 1.04-0.895 1.57-1.36 3.01-2.61 5.98-5.2 8.8-8.02 15.6-15.6 15.6-15.6 21.6-17.6 1.02-0.984 2.01-1.99 3-3 1.64-1.26 3.31-2.49 5-3.69 0.866-0.623 1.73-1.25 2.62-1.89 3.61-2.17 6.44-1.31 10.4-0.426 0.99 0.33 1.98 0.66 3 1 7.34-0.0417 14.1-1.14 21.1-3.24 4.48-1.18 9.03-1.69 13.6-2.29 2.68-0.386 5.17-0.905 7.77-1.6 6.66-1.58 15.7-2.76 21.5 1.12z" fill="#FBA94B"/>
<path transform="translate(931,512)" d="m0 0c1.32 0.33 2.64 0.66 4 1-0.33 0.66-0.66 1.32-1 2l1 1v2c0.66-0.66 1.32-1.32 2-2 0.99 1.49 0.99 1.49 2 3 0.33-0.66 0.66-1.32 1-2h7c0.33-0.66 0.66-1.32 1-2v2h2l3 6c0.99 0.66 1.98 1.32 3 2-0.66 0.66-1.32 1.32-2 2 1.31 3.12 1.31 3.12 4 5-0.33 0.66-0.66 1.32-1 2 1.29 2.06 1.29 2.06 3 4h3v5c-4.18 1.59-7.53 2.21-12 2 0.33 0.99 0.66 1.98 1 3-0.928 0.247-0.928 0.247-1.88 0.5-2.58 1.45-2.58 1.45-2.88 5.38-0.537 2.69-0.822 3.79-3.01 5.5-2.74 1.37-5.37 2.42-8.36 3.11-2.87 0.775-4.07 2.2-5.88 4.51-0.103 0.949-0.206 1.9-0.312 2.88-1.01 4.58-3.97 6.49-7.69 9.12-0.99 0.495-0.99 0.495-2 1 0.33 0.66 0.66 1.32 1 2-4.46 0.495-4.46 0.495-9 1-0.495 1.49-0.495 1.49-1 3-2.98 1.96-4.26 2-8 2v4h-2c-0.351 0.928-0.701 1.86-1.06 2.81-2.45 4.04-4.52 4.72-8.94 6.19-0.784 0.165-1.57 0.33-2.38 0.5-0.536 0.165-1.07 0.33-1.62 0.5-0.495 1.49-0.495 1.49-1 3h-3v2c-2.81 2.53-5.52 3.7-9.12 4.75-1.3 0.394-1.3 0.394-2.63 0.797-2.24 0.453-2.24 0.453-4.24-0.547v4c-2.97 1.32-5.94 2.64-9 4 0.33 0.66 0.66 1.32 1 2h-6c-0.495 1.98-0.495 1.98-1 4-1.05 0.13-1.05 0.13-2.12 0.262-2.72 0.42-5.26 0.876-7.88 1.74-1.76 2.46-1.76 2.46-2 5h-3c-0.66 0.99-1.32 1.98-2 3-1.49 0.495-1.49 0.495-3 1-0.66 0.99-1.32 1.98-2 3-2.21 0.66-2.21 0.66-4.81 1.06-3.63 0.625-6.83 1.37-10.2 2.94 0.489-4.2 1.46-5.88 4.75-8.5 0.723-0.596 1.45-1.19 2.19-1.8 0.679-0.559 1.36-1.12 2.06-1.7 1.69-1.65 3.36-3.31 5-5l5-5c0.557-0.598 1.11-1.2 1.69-1.81 1.31-1.19 1.31-1.19 3.31-1.19v-2c1.4-1.16 2.8-2.31 4.22-3.45 2.65-2.31 4.84-4.97 7.12-7.64 2.1-2.43 4.39-4.64 6.66-6.91 0.825-0.99 1.65-1.98 2.5-3 2.37-2.84 4.89-5.39 7.5-8 0.825-0.99 1.65-1.98 2.5-3 6.35-7.62 6.35-7.62 10.5-9 0.686-1.32 1.35-2.66 2-4 3.1-3.94 6.4-7.5 10-11 1.97-1.88 1.97-1.88 3.31-3.75 3.75-5 7.9-9.65 12-14.3 1.7-1.93 1.7-1.93 3.23-4.17 0.467-0.58 0.933-1.16 1.41-1.76h2c0.24-0.701 0.48-1.4 0.727-2.12 1.49-3.37 3.41-5.96 5.65-8.88 0.771-1.01 1.54-2.02 2.34-3.06 1.47-1.89 2.95-3.76 4.45-5.62 1.94-2.37 1.94-2.37 3.84-5.31z" fill="#CE4586"/>
<path transform="translate(697,1041)" d="m0 0c11 0 11 0 23 1v84h52c0.987 3.95 1.13 7.14 1.12 11.2 0.00387 1.88 0.00387 1.88 0.00781 3.79-0.133 3.02-0.133 3.02-1.13 4.02-2.34 0.0949-4.66 0.126-7 0.114-0.744 1.21e-4 -1.49 2.41e-4 -2.25 3.65e-4 -2.42-7.49e-4 -4.83-0.00838-7.25-0.0162-1.49-0.00147-2.98-0.00249-4.46-0.00305-5.53-0.00525-11.1-0.0192-16.6-0.0321-12.4-0.0206-24.7-0.0412-37.4-0.0625v-104z" fill="#000102"/>
<path transform="translate(978,616)" d="m0 0c2.25 0.0649 4.5 0.203 6.75 0.375 1.23 0.0902 2.46 0.18 3.73 0.273 4.75 0.475 8.28 1.23 12.5 3.35 2.16 0.637 4.33 1.24 6.5 1.81 6.64 1.86 13.4 3.81 19.5 7.19 0.495 1.49 0.495 1.49 1 3l-4 2c0.33 0.33 0.66 0.66 1 1 0.0727 2.35 0.0837 4.71 0.0625 7.06-0.00902 1.29-0.018 2.58-0.0273 3.91-0.0116 0.999-0.0232 2-0.0352 3.03l2 1c-0.495 0.99-0.495 0.99-1 2 0.99-0.33 1.98-0.66 3-1v4h4c1.59 3.19 1.1 6.63 1.06 10.1-0.00451 0.754-0.00902 1.51-0.0137 2.29-0.0118 1.86-0.0297 3.73-0.0488 5.59-3.46 0.495-3.46 0.495-7 1-0.66 3.3-1.32 6.6-2 10-0.969 0.124-1.94 0.247-2.94 0.375-1.52 0.309-1.52 0.309-3.06 0.625-0.33 0.66-0.66 1.32-1 2l-1 1c-2.34-0.287-4.67-0.619-7-1-0.33 3.3-0.66 6.6-1 10-3.47 0.495-3.47 0.495-7 1-0.33-1.32-0.66-2.64-1-4v3c-2.48 0.495-2.48 0.495-5 1-1.62-3.13-2.09-5.58-1.98-9.04 0.0574-5.25-0.614-10.3-1.4-15.5-0.126-0.886-0.253-1.77-0.383-2.68-1.44-10.8-1.44-10.8-5.12-21.1-1.75-3.7-2.98-7.39-4.12-11.3-1.13-3.85-2.31-7.3-4.25-10.8-1.95-3.6-2.17-6.51-1.75-10.6l1-1z" fill="#FA8C42"/>
<path transform="translate(979,384)" d="m0 0c1.63 0.06 3.25 0.149 4.88 0.25 1.36 0.0696 1.36 0.0696 2.74 0.141 2.38 0.609 2.38 0.609 3.7 2.66 0.224 0.645 0.449 1.29 0.68 1.95h4v2c1.08-0.371 1.08-0.371 2.19-0.75 2.81-0.25 2.81-0.25 5.62 1.06 3.29 4.04 2.66 7.67 2.19 12.7-0.259 2.36-0.593 4.66-1 7 1.32 0.66 2.64 1.32 4 2-0.613 7.48-0.613 7.48-2.44 9.94-1.56 1.06-1.56 1.06-3.56 2.06-0.144 0.619-0.289 1.24-0.438 1.88-0.66 2.49-1.65 3.46-3.56 5.12-0.33-0.33-0.66-0.66-1-1-1.68-0.233-3.37-0.413-5.06-0.562-0.919-0.0838-1.84-0.168-2.79-0.254-1.07-0.0909-1.07-0.0909-2.15-0.184 0.33 0.99 0.66 1.98 1 3-6.51 1.91-6.51 1.91-9.88 2.5-1.05 0.248-1.05 0.248-2.12 0.5-0.495 0.99-0.495 0.99-1 2-0.897-0.278-0.897-0.278-1.81-0.562-2.35-0.658-2.35-0.658-5.19 0.562v-4h-3c-0.147-0.762-0.294-1.52-0.445-2.31-2.02-9.31-4.78-16.6-13-21.9-4.94-2.72-10.2-4.45-15.6-6.01-3.67-1.09-4.8-1.43-7-4.74v-3c1.32-0.33 2.64-0.66 4-1v-2c10.1-5.58 21.9-5.15 33-3v-2l-2-1c7.75-1.12 7.75-1.12 10 0 1.67 0.0397 3.33 0.0438 5 0v-3z" fill="#F93E6D"/>
<path transform="translate(770 446)" d="m0 0c0.577 0.248 1.15 0.495 1.75 0.75v6h2v-2h2v6c0.99-0.33 1.98-0.66 3-1v4c0.687 0.0258 1.37 0.0516 2.08 0.0781 0.901 0.0567 1.8 0.113 2.73 0.172 1.34 0.0696 1.34 0.0696 2.71 0.141 3.14 0.77 3.75 1.97 5.48 4.61 2.09 0.796 2.09 0.796 4 1v-2c0.678 0.13 1.36 0.26 2.05 0.395 6.61 0.98 10.4 0.44 16.2-2.88 3.26-1.78 6.63-3.08 10.1-4.39 6.37-2.44 12.2-5.45 18.1-8.9 2.61-1.22 2.61-1.22 5.61-0.223-1.27 2.54-2.42 2.89-4.94 4.12-0.71 0.353-1.42 0.706-2.15 1.07-1.91 0.805-1.91 0.805-3.91 0.805-0.33 0.99-0.66 1.98-1 3h-3v2c-3.3 1.32-6.6 2.64-10 4v2c-1.33 0.65-1.33 0.65-2.69 1.31-3.26 1.6-3.26 1.6-6 3.38-2.31 1.31-2.31 1.31-5.31 1.31-0.0412 0.598-0.0825 1.2-0.125 1.81-0.875 2.19-0.875 2.19-3.81 3.94-3.06 1.25-3.06 1.25-5.06 1.25v2c-1.22 0.413-2.43 0.825-3.69 1.25-4.45 1.68-7.48 4.14-11 7.27-5.91 4.85-11.6 6.48-19.3 6.48-0.949-0.186-1.9-0.371-2.88-0.562-3.01-0.63-3.01-0.63-5.44 0.188-3.02 0.421-4.25-0.0698-7.06-1.12-4.27-1.59-7.12-1.22-11.6-0.5-2-1.19-2-1.19-3-3 0.312-2.19 0.312-2.19 1-4h-2c-0.33 1.32-0.66 2.64-1 4-0.66-0.33-1.32-0.66-2-1 0.247-1.18 0.247-1.18 0.5-2.38 0.562-2.51 0.562-2.51 0.5-4.62 1.5-1.41 1.5-1.41 3.56-3.06 3.08-2.6 5.51-5.18 7.88-8.44 3.04-4.1 6.39-6.95 10.5-9.89 2.12-1.55 2.12-1.55 3.66-3.8 0.673-0.891 0.673-0.891 1.36-1.8h2c0.247-0.743 0.495-1.49 0.75-2.25 1.61-3.53 3.22-6.98 7.5-6.5z" fill="#FB9945"/>
<path transform="translate(607,887)" d="m0 0h4c0.66 0.66 1.32 1.32 2 2 0.66-0.33 1.32-0.66 2-1 0.99 0.66 1.98 1.32 3 2 1.2 0.33 2.39 0.66 3.62 1 1.11 0.33 2.23 0.66 3.38 1 0.33 0.66 0.66 1.32 1 2-0.33 0.66-0.66 1.32-1 2h2v2c1.26-0.0619 2.52-0.124 3.81-0.188 3.9-0.00691 3.9-0.00691 6.19 1.56 1 1.62 1 1.62 1 3.62 4.33 2.03 8.29 2.52 13 3 0.155 1.18 0.155 1.18 0.312 2.38 0.463 2.96 0.463 2.96 3.69 4.62 2.39 0.295 4.79 0.493 7.19 0.625 1.91 0.112 1.91 0.112 3.86 0.227 0.976 0.049 1.95 0.098 2.96 0.148 0.495 2.48 0.495 2.48 1 5h8c0.33 0.66 0.66 1.32 1 2-0.495 0.99-0.495 0.99-1 2 0.687 0.0374 1.37 0.0748 2.08 0.113 0.901 0.0657 1.8 0.131 2.73 0.199 0.893 0.058 1.79 0.116 2.71 0.176 2.87 0.591 3.67 1.28 5.48 3.51 0.846 1.01 1.69 2.02 2.56 3.06 0.804 0.969 1.61 1.94 2.44 2.94 0.66 0.66 1.32 1.32 2 2 0.495-0.99 0.495-0.99 1-2 6.75 0.875 6.75 0.875 9 2v3c3.47 2.31 4.95 2.09 9 2 0.66 0.33 1.32 0.66 2 1 1.54 0.225 3.08 0.408 4.62 0.562 0.817 0.0838 1.63 0.168 2.48 0.254 0.94 0.0909 0.94 0.0909 1.9 0.184-1.25 2.5-1.25 2.5-3 5h-4v2c0.66 0.33 1.32 0.66 2 1l-2 2c0.743-0.0825 1.49-0.165 2.25-0.25 2.75 0.25 2.75 0.25 5.06 2.12 1.69 2.12 1.69 2.12 1.69 4.12-3.4-0.11-6.79-0.241-10.2-0.375-0.96-0.0309-1.92-0.0619-2.91-0.0938-0.931-0.0387-1.86-0.0773-2.82-0.117-0.854-0.0314-1.71-0.0628-2.59-0.0952-2.77-0.354-4.93-1.24-7.5-2.32-2.71-0.462-5.4-0.872-8.12-1.25-6.83-1.04-13.3-2.59-19.9-4.69-0.76-0.241-1.52-0.481-2.3-0.729-5.32-1.75-10.7-3.63-15.6-6.33-0.33-0.66-0.66-1.32-1-2h3c-0.33-1.65-0.66-3.3-1-5h-5c-0.66-1.65-1.32-3.3-2-5 0.99 0.33 1.98 0.66 3 1v-2l-2-1-1-1c-1.33-0.683-2.66-1.35-4-2v-3l-2-2v-2c-2.26-3.18-2.26-3.18-5-6h-3c-0.33-0.66-0.66-1.32-1-2-1.67-0.342-3.33-0.674-5-1l-2-2c-0.66-0.33-1.32-0.66-2-1 0.33-0.66 0.66-1.32 1-2-2.31-0.66-4.62-1.32-7-2v-2h-2v-2h-4c-0.33 0.66-0.66 1.32-1 2-0.392-1.26-0.784-2.52-1.19-3.81-1.45-3.96-2.97-5.32-6.81-7.19v-2z" fill="#FB9945"/>
<path transform="translate(513,639)" d="m0 0h1c0.0274 1.85 0.0466 3.71 0.0625 5.56 0.0116 1.03 0.0232 2.07 0.0352 3.13-0.0977 3.31-0.0977 3.31-0.594 6.59-0.623 4.6-0.653 9.09-0.629 13.7 0.00338 0.948 0.00677 1.9 0.0103 2.87 0.0507 7.19 0.221 14.4 0.49 21.6 0.0308 0.952 0.0616 1.9 0.0933 2.88 0.225 5.24 1.02 9.64 2.53 14.7 0.96 5.35 1.71 10.7 2.5 16.1 0.165 1.08 0.33 2.17 0.5 3.28 0.144 0.982 0.289 1.96 0.438 2.98 0.542 2.54 1.36 4.36 2.56 6.64 0.875 3.47 1.66 6.95 2.41 10.4 1.13 5.05 2.69 9.74 4.59 14.6 0.503 1.36 1 2.71 1.5 4.07 0.247 0.669 0.495 1.34 0.75 2.03 0.503 1.36 1 2.72 1.5 4.08 1.52 4.09 3.24 7.94 5.25 11.8 0.558 1.16 1.12 2.33 1.69 3.52 4.23 8.74 8.95 17 14.2 25.1 1.53 2.42 2.91 4.74 4.1 7.33h-2c-0.66 0.66-1.32 1.32-2 2-6.03-1.39-9.12-3-12.4-8.27-0.657-1.26-0.657-1.26-1.33-2.54-1.69-3.22-3.39-6.43-5.17-9.61-4.96-8.88-8.82-18-12.3-27.5-0.504-1.36-1.02-2.72-1.56-4.06-2.24-5.68-3.48-11.4-4.67-17.4-0.751-3.6-1.55-6.66-3.07-10-1.89-4.61-2.43-9.05-3.04-14-0.222-1.8-0.452-3.6-0.691-5.4-0.0961-0.788-0.192-1.58-0.291-2.39-0.15-0.607-0.3-1.21-0.455-1.84-0.66-0.33-1.32-0.66-2-1 0.0848-8.3 0.18-16.6 0.288-24.9 0.0497-3.86 0.0961-7.71 0.134-11.6 0.0372-3.73 0.0836-7.46 0.136-11.2 0.0184-1.42 0.0336-2.83 0.0453-4.25 0.143-16.7 0.143-16.7 2.4-23.1 0.66-0.33 1.32-0.66 2-1 0.656-2.53 0.656-2.53 1-5z" fill="#F5653A"/>
<path transform="translate(789,1191)" d="m0 0c1.68 1.32 3.35 2.65 5 4 2.72-0.0825 3.76-0.789 5.81-2.56 3.25-2.14 5.38-1.96 9.19-1.44 2.97 1.79 5.43 3.85 7 7 0.0853 2.03 0.107 4.07 0.0977 6.1-0.00322 1.21-0.00645 2.42-0.00977 3.67-0.0126 1.91-0.0126 1.91-0.0254 3.85-0.00451 1.28-0.00902 2.56-0.0137 3.88-0.0118 3.17-0.0283 6.33-0.0488 9.5-1.65-0.33-3.3-0.66-5-1-0.0297-1.11-0.0297-1.11-0.0601-2.25-0.0952-3.36-0.205-6.71-0.315-10.1-0.0309-1.17-0.0619-2.33-0.0938-3.54-0.058-1.68-0.058-1.68-0.117-3.39-0.0314-1.03-0.0628-2.06-0.0952-3.13-0.146-2.86-0.146-2.86-2.32-5.64-4.64-0.52-4.64-0.52-8.88 1.12-3.08 5.14-2.43 12.4-2.69 18.2-0.0432 0.927-0.0864 1.85-0.131 2.81-0.105 2.27-0.208 4.54-0.307 6.82-1.65-0.33-3.3-0.66-5-1-0.0146-0.742-0.0292-1.48-0.0442-2.25-0.0744-3.36-0.171-6.71-0.268-10.1-0.0226-1.17-0.0451-2.33-0.0684-3.54-0.0354-1.12-0.0709-2.24-0.107-3.39-0.0262-1.03-0.0524-2.06-0.0793-3.13-0.239-2.65-0.239-2.65-1.74-4.51-1.85-1.48-1.85-1.48-5.25-0.941-3.48 0.505-3.48 0.505-5.44 2.81-1.02 3.05-1.19 6.01-1.32 9.2-0.0419 0.98-0.0838 1.96-0.127 2.97-0.059 1.52-0.059 1.52-0.119 3.08-0.0432 1.03-0.0864 2.06-0.131 3.12-0.106 2.54-0.208 5.08-0.307 7.62h-4c-1.46-2.92-1.11-5.5-1.1-8.76 0.00141-0.663 0.00283-1.33 0.00429-2.01 0.0056-2.12 0.0182-4.24 0.0309-6.36 0.00501-1.44 0.00958-2.87 0.0137-4.31 0.011-3.52 0.0283-7.04 0.0488-10.6 3.01-0.934 3.87-1.04 7 0 0.763-0.309 1.53-0.619 2.31-0.938 3.2-1.27 5.27-1.49 8.69-1.06z" fill="#020305"/>
<path transform="translate(993,1191)" d="m0 0c2.25 2.06 2.25 2.06 4 4 2.73-0.0881 4.09-1.06 6.38-2.56 3.21-1.76 5.01-1.89 8.62-1.44 3.79 1.72 5.53 3.14 7 7 0.227 2.93 0.227 2.93 0.195 6.3-0.00645 1.21-0.0129 2.41-0.0195 3.65-0.0168 1.25-0.0335 2.51-0.0508 3.8-0.00902 1.27-0.018 2.54-0.0273 3.85-0.0236 3.13-0.0565 6.27-0.0977 9.4h-4c-0.0146-0.63-0.0292-1.26-0.0442-1.91-0.075-2.89-0.171-5.77-0.268-8.65-0.0338-1.49-0.0338-1.49-0.0684-3-0.214-5.87-0.888-10.2-3.62-15.4h-9c-2.07 9.65-2.59 19.2-3 29-1.65-0.33-3.3-0.66-5-1 0.0105-0.635 0.0209-1.27 0.0317-1.92 0.0418-2.9 0.0677-5.8 0.0933-8.7 0.0168-0.999 0.0335-2 0.0508-3.03 0.0344-5.19-0.0732-9.5-2.18-14.3-1.26-0.0825-2.52-0.165-3.81-0.25-1.06-0.0696-1.06-0.0696-2.14-0.141-2.18 0.212-2.18 0.212-3.62 2.05-1.73 2.86-1.93 4.87-2.15 8.2-0.0806 1.12-0.161 2.23-0.244 3.38-0.0703 1.16-0.141 2.32-0.213 3.51-0.0819 1.17-0.164 2.35-0.248 3.56-0.2 2.9-0.388 5.79-0.564 8.69-1.65-0.33-3.3-0.66-5-1v-31c4-1 4-1 6.06-0.438 0.639 0.144 1.28 0.289 1.94 0.438 3.65-2.44 6.75-2.75 11-2z" fill="#060508"/>
<path transform="translate(579,1191)" d="m0 0c2.48 0.495 2.48 0.495 5 1 0.33 0.99 0.66 1.98 1 3 0.629-0.3 1.26-0.601 1.91-0.91 5.94-2.64 9.76-3.89 16.1-2.09 5.01 3.21 7.27 6.32 9 12 0.707 6.36-0.369 10.7-4 16-3.88 4.25-7.07 5.78-12.7 6.15-3.84-0.252-6.83-1.57-10.3-3.15v14c-1.49 0.495-1.49 0.495-3 1-0.66-0.33-1.32-0.66-2-1-0.33-15.2-0.66-30.4-1-46zm9 7c-3.8 5.19-3.67 10.8-3 17 1.42 4.01 2.62 4.78 6.31 6.94 4.26 1.23 5.79 1.06 9.69-0.938 2.21-1.91 3.69-3.39 5-6 0.149-2.1 0.221-4.21 0.25-6.31 0.0258-1.13 0.0516-2.26 0.0781-3.43-0.362-3.6-1.16-5.4-3.33-8.26-5.92-3.94-9.62-3.67-15 1z" fill="#030305"/>
<path transform="translate(912,407)" d="m0 0c4.83-0.337 6.96 0.466 11 3 1.45 0.485 2.91 0.941 4.38 1.38 8.92 2.91 14.5 8.82 19.6 16.6 1.94 4.53 2.24 9.1 2 14h-8c-0.124-0.784-0.247-1.57-0.375-2.38-0.416-2.77-0.416-2.77-2.62-4.62l-2-1v-2c-0.99-0.33-1.98-0.66-3-1v-9c-1.09 0.0825-2.19 0.165-3.31 0.25-3.69-0.25-3.69-0.25-5.62-2.25-0.351-0.66-0.701-1.32-1.06-2-0.887 0.701-1.77 1.4-2.69 2.12-3.31 1.88-3.31 1.88-6.19 1.12-0.701-0.413-1.4-0.825-2.12-1.25 0.66-0.66 1.32-1.32 2-2-2.31-0.33-4.62-0.66-7-1l2-1c0.359-1.66 0.689-3.33 1-5 1.06-2.31 1.06-2.31 2-4z" fill="#FB9945"/>
<path transform="translate(723,1192)" d="m0 0c4.3 2.52 6.27 5.35 8 10 0.188 3.88 0.188 3.88 0 7-2.41 1.2-4.1 1.2-6.79 1.32-0.941 0.0419-1.88 0.0838-2.85 0.127-0.985 0.0393-1.97 0.0786-2.98 0.119-0.993 0.0432-1.99 0.0864-3.01 0.131-2.46 0.106-4.91 0.208-7.37 0.307 0.406 4.68 0.406 4.68 2.25 8.88 3.08 1.98 5.55 2.38 9.12 1.62 3.29-1.88 5.59-4.29 8.17-7.04 0.719-0.723 0.719-0.723 1.45-1.46h1c-0.239 6.09-0.239 6.09-2.3 8.54-4.44 3.75-7.94 4.77-13.7 4.67-4.13-0.445-6.38-2.59-9.18-5.46-3.54-5.38-4.27-10.4-3.35-16.6 1.39-5.51 5-9 9.54-12.1 4.19-1.4 7.73-0.963 12 0zm-15 8c-0.33 0.33-0.66 0.66-1 1-0.167 2.5-0.167 2.5 0 5 1.89 1.89 4.58 1.13 7.08 1.14 0.798-0.00387 1.6-0.00773 2.42-0.0117 0.798 0.00387 1.6 0.00773 2.42 0.0117 3.85 0.372 3.85 0.372 7.08-1.14 0.488-3.51 0.156-4.77-1.88-7.75-2.7-2.86-3.51-3.18-7.44-3.62-4.59 0.467-5.8 1.9-8.69 5.38z" fill="#020305"/>
<path transform="translate(904,1192)" d="m0 0h5c0.0146 0.701 0.0292 1.4 0.0442 2.12 0.0747 3.19 0.171 6.38 0.268 9.56 0.0226 1.1 0.0451 2.21 0.0684 3.34 0.0354 1.07 0.0709 2.13 0.107 3.23 0.0262 0.979 0.0524 1.96 0.0793 2.97 0.509 3.26 1.39 5.18 3.43 7.77 4.56 0.651 6.73 0.945 10.4-1.81 4.96-6.95 3.72-18 3.56-26.2 1.65-0.33 3.3-0.66 5-1v33c-1.65-0.33-3.3-0.66-5-1-2.07-0.149-2.07-0.149-4 1-2.29 0.201-4.58 0.313-6.88 0.375-1.23 0.049-2.47 0.098-3.74 0.148-3.38-0.523-3.38-0.523-5.77-2.8-2.49-4.19-2.74-7.53-2.71-12.4 0.00322-1.07 0.00645-2.14 0.00977-3.24 0.00838-1.11 0.0168-2.22 0.0254-3.37 0.00451-1.13 0.00902-2.25 0.0137-3.41 0.0118-2.78 0.0282-5.56 0.0488-8.34z" fill="#020305"/>
<path transform="translate(567,1041)" d="m0 0c56.9 0 56.9 0 69 2v1c-7.63 0.0255-15.3 0.0429-22.9 0.0549-2.59 0.00501-5.18 0.0118-7.78 0.0205-3.74 0.0122-7.48 0.0178-11.2 0.0222-1.15 0.00516-2.29 0.0103-3.47 0.0156-1.65 1.13e-4 -1.65 1.13e-4 -3.33 2.29e-4 -0.953 0.00222-1.91 0.00444-2.89 0.00673-4.82-0.17-9.61-0.684-14.4-1.12-0.33 33.7-0.66 67.3-1 102h-2v-104z" fill="#030406"/>
<path transform="translate(880,936)" d="m0 0c1.12 4.75 1.12 4.75 0 7h-6v-2c-2.49-0.687-4.38-1-7-1-2.47 1.98-3.72 4.14-5 7h-3c3.01 0.934 3.87 1.04 7 0 0.99 0.33 1.98 0.66 3 1v2c-3.65 1.6-7.07 2.49-11 3.12-1.01 0.168-2.02 0.335-3.06 0.508-2.69 0.336-5.23 0.437-7.94 0.367-0.33-0.99-0.66-1.98-1-3 0.66-0.33 1.32-0.66 2-1 0.225-2.03 0.444-4.05 0.559-6.09 0.441-1.91 0.441-1.91 3.44-3.91 1.99-0.39 3.99-0.732 6-1v-1c0.835-0.0735 0.835-0.0735 1.69-0.148 3.97-0.389 7.72-0.891 11.6-1.98 3.53-0.823 5.35-0.936 8.75 0.125z" fill="#FB8E43"/>
<path transform="translate(651,1192)" d="m0 0c2.48 0.495 2.48 0.495 5 1 3.79 0 7.27-0.425 11-1-0.33 0.99-0.66 1.98-1 3-1.7 0.681-1.7 0.681-3.44 1.38-3.65 1.23-3.65 1.23-4.76 3.9-0.818 2.78-1.12 5.14-1.22 8.03-0.0387 0.976-0.0773 1.95-0.117 2.96-0.0309 1.01-0.0619 2.01-0.0938 3.05-0.0387 1.03-0.0773 2.05-0.117 3.11-0.094 2.53-0.18 5.05-0.258 7.58-1.65-0.33-3.3-0.66-5-1v-32z" fill="#020305"/>
<path transform="translate(508,719)" d="m0 0c2.34 2.34 2.35 3.14 2.75 6.32 0.173 1.3 0.173 1.3 0.35 2.62 0.225 1.81 0.449 3.62 0.672 5.43 0.722 5.39 2.03 9.62 4.23 14.6 0.882 3.45 1.54 6.94 2.19 10.4 0.177 0.922 0.354 1.84 0.537 2.79 0.432 2.25 0.857 4.51 1.28 6.77h-2v-2c-0.99-0.33-1.98-0.66-3-1-0.699-1.32-1.37-2.65-2-4-0.66-0.33-1.32-0.66-2-1-0.778-3.82-1.24-6.27 0-10h-2c-1.05-6.27-1.36-12.5-1.62-18.9-0.0516-1.06-0.103-2.11-0.156-3.2-0.0438-1-0.0877-2.01-0.133-3.04-0.0408-0.914-0.0815-1.83-0.124-2.77 0.0376-2.11 0.0376-2.11 1.04-3.11z" fill="#FB9845"/>
<path transform="translate(975,1192)" d="m0 0c1.67 0.247 1.67 0.247 3.38 0.5 3.57 0.765 3.57 0.765 6.62-0.5 0.99 0.99 1.98 1.98 3 3-0.784 0.268-1.57 0.536-2.38 0.812-2.91 1.04-2.91 1.04-4.62 4.19-0.46 2.71-0.46 2.71-0.633 5.76-0.0838 1.12-0.168 2.24-0.254 3.39-0.0786 1.17-0.157 2.33-0.238 3.54-0.0864 1.18-0.173 2.36-0.262 3.57-0.212 2.91-0.416 5.83-0.613 8.74-1.65-0.33-3.3-0.66-5-1-0.0247-4.4-0.0428-8.79-0.0549-13.2-0.00504-1.5-0.0119-2.99-0.0205-4.49-0.0121-2.15-0.0178-4.29-0.0222-6.44-0.00524-1.29-0.0105-2.59-0.0159-3.92 0.114-2.96 0.114-2.96 1.11-3.96z" fill="#030406"/>
<path transform="translate(904,1192)" d="m0 0h5c0.0146 0.701 0.0292 1.4 0.0442 2.12 0.0747 3.19 0.171 6.38 0.268 9.56 0.0226 1.1 0.0451 2.21 0.0684 3.34 0.0354 1.07 0.0709 2.13 0.107 3.23 0.0262 0.979 0.0524 1.96 0.0793 2.97 0.499 3.2 1.67 5.09 3.43 7.77 0.33 0.99 0.66 1.98 1 3-2.48 0.495-2.48 0.495-5 1-4.33-5.03-5.13-8.09-5.1-14.6 0.00322-1.07 0.00645-2.14 0.00977-3.24 0.00838-1.11 0.0168-2.22 0.0254-3.37 0.00451-1.13 0.00902-2.25 0.0137-3.41 0.0118-2.78 0.0282-5.56 0.0488-8.34z" fill="#030406"/>
<path transform="translate(596,1191)" d="m0 0c8.78 1.11 8.78 1.11 11.9 4.81 3.43 5.31 5.07 9.78 4.06 16.2-1.1 2.81-2.45 5.41-4 8-1.32-0.33-2.64-0.66-4-1 0.161-0.526 0.322-1.05 0.488-1.59 0.639-3.01 0.682-5.83 0.699-8.91 0.0142-1.12 0.0284-2.25 0.043-3.41-0.225-3.02-0.54-4.62-2.23-7.09-2.92-1.95-4.63-2.45-8-3 0.33-1.32 0.66-2.64 1-4z" fill="#060508"/>
<path transform="translate(858,1192)" d="m0 0h5v32c-2.48 0.495-2.48 0.495-5 1v-33z" fill="#020304"/>
<path transform="translate(1014,1092)" d="m0 0h21c0.0229 5.8 0.0428 11.6 0.0549 17.4 0.00504 1.97 0.0119 3.95 0.0205 5.92 0.0121 2.83 0.0178 5.67 0.0222 8.5 0.00516 0.887 0.0103 1.77 0.0156 2.69 5.75e-4 6.25 5.75e-4 6.25-1.11 8.48h-2c0.00524-0.714 0.0105-1.43 0.0159-2.16 0.174-18.9 0.174-18.9-1.02-37.8-3.85-0.716-7.46-1.12-11.4-1.06-0.874 0.00902-1.75 0.018-2.65 0.0273-0.652 0.0116-1.3 0.0232-1.98 0.0352-0.33-0.66-0.66-1.32-1-2z" fill="#030406"/>
<path transform="translate(697,1041)" d="m0 0c12.4 0 12.4 0 17.7 0.5 1.01 0.0928 2.03 0.186 3.07 0.281 1.11 0.108 1.11 0.108 2.24 0.219v1c-10.4 0.495-10.4 0.495-21 1-0.33 33.3-0.66 66.7-1 101h-1v-104z" fill="#030406"/>
<path transform="translate(869,938)" d="m0 0c2.5 1.38 2.5 1.38 5 3v2c0.536-0.206 1.07-0.413 1.62-0.625 3.21-0.506 5.39 0.471 8.38 1.62-2 3-2 3-4.86 3.77-1.14 0.16-2.28 0.32-3.45 0.484-1.7 0.255-1.7 0.255-3.43 0.516-3.06 0.22-5.31-0.0758-8.26-0.766-2.23 0.369-2.23 0.369-4 1-0.66-0.99-1.32-1.98-2-3 1.65-0.33 3.3-0.66 5-1 0.0619-0.598 0.124-1.2 0.188-1.81 1.14-3.06 2.99-3.74 5.81-5.19z" fill="#FB9745"/>
<path transform="translate(832,404)" d="m0 0c-0.99 0.66-1.98 1.32-3 2 0.771 0.049 1.54 0.098 2.34 0.148 1 0.0748 2.01 0.15 3.04 0.227 1.5 0.104 1.5 0.104 3.02 0.211 2.6 0.414 2.6 0.414 4.6 2.41-2.59 0.864-4.34 1.18-7.01 1.32-0.757 0.0419-1.51 0.0838-2.29 0.127-0.786 0.0393-1.57 0.0786-2.38 0.119-0.797 0.0432-1.59 0.0864-2.42 0.131-1.97 0.106-3.93 0.207-5.9 0.307-0.33-0.66-0.66-1.32-1-2-1.65 0.33-3.3 0.66-5 1v-3c5.24-5.2 9.35-5.49 16-3z" fill="#F94069"/>
<path transform="translate(652,1203)" d="m0 0h4v22h-4v-22z" fill="#000002"/>
<path transform="translate(937,1099)" d="m0 0c0.99 0.495 0.99 0.495 2 1 0.359 1.66 0.689 3.33 1 5 0.63 1.35 1.31 2.68 2 4 1.19 2.31 2.38 4.62 3.56 6.94 0.316 0.608 0.633 1.22 0.959 1.84 1.72 3.39 2.96 6.45 3.48 10.2-7.04-5.8-11.2-15.2-13-24-0.125-2.94-0.125-2.94 0-5z" fill="#030406"/>
<path transform="translate(513,639)" d="m0 0h1c0.243 7.74 0.275 15.5-2 23-0.66 0.33-1.32 0.66-2 1-2.18-3.27-2.21-3.67-1.69-7.31 0.166-1.19 0.166-1.19 0.336-2.39 0.116-0.757 0.232-1.51 0.352-2.29 0.144-1.15 0.289-2.31 0.438-3.5 0.186-0.825 0.371-1.65 0.562-2.5 0.66-0.33 1.32-0.66 2-1 0.656-2.53 0.656-2.53 1-5z" fill="#E84869"/>
<path transform="translate(821,408)" d="m0 0c-1.38 4.14-1.38 4.14-4 6-2.68 0.556-5.26 0.776-8 1 0.188-1.81 0.188-1.81 1-4 3.92-2.89 6.24-3 11-3z" fill="#F87D3F"/>
<path transform="translate(976,1210)" d="m0 0c0.99 0.33 1.98 0.66 3 1v14h-3v-15z" fill="#000002"/>
<path transform="translate(821,1106)" d="m0 0c1.72 2.24 3.28 4.46 4.75 6.88 2.66 3.69 5.7 6.32 9.25 9.12-2 1-2 1-3.8 0.574-4.7-2.01-6.75-3.84-8.7-8.64-1.01-2.89-1.5-4.86-1.5-7.94z" fill="#020305"/>
<path transform="translate(597 1041)" d="m0 0c1.16 0.00902 2.32 0.018 3.52 0.0273 0.88 0.0116 1.76 0.0232 2.67 0.0352v1c-5.64 2.44-11 2.19-17 2-0.33-0.66-0.66-1.32-1-2 4-0.956 7.71-1.1 11.8-1.06z" fill="#020305"/>
<path transform="translate(508,719)" d="m0 0c2.93 2.93 2.46 6.18 2.62 10.1 0.0387 0.754 0.0773 1.51 0.117 2.29 0.0943 1.86 0.177 3.73 0.258 5.59-0.99-0.66-1.98-1.32-3-2-0.412-2.59-0.648-4.96-0.75-7.56-0.0425-0.698-0.0851-1.4-0.129-2.12-0.0928-1.77-0.113-3.55-0.121-5.32 0.33-0.33 0.66-0.66 1-1z" fill="#FA8942"/>
<path transform="translate(513,639)" d="m0 0h1v12h-2c-0.33 1.32-0.66 2.64-1 4-1.76-2.68-2.01-3.92-1.75-7.19 0.248-0.928 0.495-1.86 0.75-2.81 0.66-0.33 1.32-0.66 2-1 0.656-2.53 0.656-2.53 1-5z" fill="#D5487C"/>
<path transform="translate(710,1207)" d="m0 0c2.1-0.081 4.21-0.139 6.31-0.188 1.17-0.0348 2.34-0.0696 3.55-0.105 3.14 0.293 3.14 0.293 6.14 3.29h-13v-2c-0.99-0.33-1.98-0.66-3-1z" fill="#000002"/>
<path transform="translate(543,818)" d="m0 0c4.18 3.56 6.69 8.09 9 13v2h-2c-0.985-1.75-1.96-3.5-2.94-5.25-0.545-0.975-1.09-1.95-1.65-2.95-1.18-2.33-1.93-4.25-2.41-6.8z" fill="#FB9945"/>
<path transform="translate(534,801)" d="m0 0c2.12 2.73 3.94 5.48 5.62 8.5 0.425 0.753 0.851 1.51 1.29 2.28 1.02 2.08 1.62 3.95 2.09 6.22-4.61-3.97-7.06-8.22-9-14v-3z" fill="#FC9A46"/>
<path transform="translate(887,422)" d="m0 0c2.97 0.495 2.97 0.495 6 1-2.1 2.1-3.68 2.89-6.38 4.06-0.771 0.342-1.54 0.683-2.34 1.04-2.09 0.823-4.1 1.42-6.29 1.9 0.66-0.99 1.32-1.98 2-3h3v-2h4v-3z" fill="#FC9A46"/>
<path transform="translate(905,417)" d="m0 0c-2.88 2.24-5.75 4.33-9 6-0.99-0.33-1.98-0.66-3-1l4-2c-1.32-0.66-2.64-1.32-4-2 4.05-0.982 7.84-1.08 12-1z" fill="#FC9A46"/>
<path transform="translate(812,1215)" d="m0 0c2 1.62 2 1.62 4 4 0.25 3.25 0.25 3.25 0 6h-3c-1.61-3.21-1.06-6.44-1-10z" fill="#000002"/>
<path transform="translate(924,789)" d="m0 0h2c0.33 0.99 0.66 1.98 1 3 0.66-0.33 1.32-0.66 2-1v3c-3.33 3-3.33 3-6 3-0.125-5.75-0.125-5.75 1-8z" fill="#DF427A"/>
<path transform="translate(976 829)" d="m0 0c0.866 0.34 0.866 0.34 1.75 0.688v2c-4.47 4-4.47 4-7 4 0-2 0-2 1-3-0.66-0.33-1.32-0.66-2-1 3.45-3.08 3.45-3.08 6.25-2.69z" fill="#FCAA4C"/>
<path transform="translate(848,448)" d="m0 0c-1.27 2.53-2.43 2.93-4.94 4.19-0.71 0.365-1.42 0.73-2.15 1.11-0.63 0.233-1.26 0.467-1.91 0.707l-2-1v-2c1.26-0.7 2.54-1.38 3.81-2.06 0.708-0.383 1.42-0.766 2.14-1.16 2.04-0.777 2.04-0.777 5.04 0.223z" fill="#FC9A46"/>
<path transform="translate(874,431)" d="m0 0 2 1v3c-8.04 2.28-8.04 2.28-12 1 1.62-0.864 3.25-1.72 4.88-2.56 0.905-0.476 1.81-0.951 2.74-1.44 1.18-0.493 1.18-0.493 2.38-0.996z" fill="#FB9945"/>
<path transform="translate(858,1182)" d="m0 0c1.65 0.33 3.3 0.66 5 1v3c-0.99 0.33-1.98 0.66-3 1-0.99-0.99-1.98-1.98-3-3 0.33-0.66 0.66-1.32 1-2z" fill="#030406"/>
<path transform="translate(922,797)" d="m0 0 2 2c-0.99 0.66-1.98 1.32-3 2 0.33-1.32 0.66-2.64 1-4z" fill="#030406"/>
<path transform="translate(691,831)" d="m0 0v3z" fill="#030406"/>
<path transform="translate(728,959)" d="m0 0 2 1z" fill="#030406"/>
</svg>
